<svg xmlns="http://www.w3.org/2000/svg" viewBox="0 0 500 500"><g id="freepik--Floor--inject-4"><ellipse id="freepik--floor--inject-4" cx="250" cy="348.62" rx="235.22" ry="135.81" style="fill:#fafafa"></ellipse></g><g id="freepik--Shadows--inject-4"><path id="freepik--Shadow--inject-4" d="M325.49,307H323c-9.83,0-20.36,1.31-29.52,5-7.86,3.2-24.28,12.83-18.67,23.57,4.77,9.16,18,13.33,27.05,16.44,9.34,3.21,18.13,6.44,27.28,10.1a88.15,88.15,0,0,0,22.81,5.49c7.61.88,16.48-.37,23.7,2.24,24.14,8.74,50.19,16.28,75.53,6.14,5.19-2.08,12.38-7.47,15-12.53,3.74-7.13,1-14-3.39-19.86-9.43-12.55-28.76-19.16-43.15-23.07-19.39-5.27-40.62-7.84-60.58-10.36-5.63-.71-10.55-.81-16.14-1.86A94.73,94.73,0,0,0,325.49,307Z" style="fill:#e0e0e0"></path><ellipse id="freepik--shadow--inject-4" cx="250" cy="407.98" rx="80.1" ry="46.24" style="fill:#e0e0e0"></ellipse><path id="freepik--shadow--inject-4" d="M80.37,367.28c-5.19-2.08-12.38-7.47-15-12.52-1.6-3.06-1.09-6.25-3.33-8.93a16.08,16.08,0,0,0-7.88-4.92c-4.31-1.26-8.92-1.06-13.37-.49-6,.77-12.31,2.45-16,7.18,0-8.32,4.53-16.09,10.41-22A45.59,45.59,0,0,1,45.24,318c10.95-6,24-6.76,36.5-6.53,15.51.27,30-.07,45.17-3.15,15.05-3.05,30.32-4.91,45.55-6.83,5.63-.71,10.55-.82,16.14-1.86,9.46-1.77,17.93-3.89,27.54-.71,7.36,2.43,14,7.56,17.37,14.53a19.19,19.19,0,0,1,2.11,8.51c0,6.41-4.1,12.26-9.26,16.06s-11.35,5.91-17.42,8l-33.67,11.35c-7.06,2.38-15.39,1-22.38,4.28a113,113,0,0,1-22.44,7.47C113.88,373,96.43,373.71,80.37,367.28Z" style="fill:#e0e0e0"></path></g><g id="freepik--dog-2--inject-4"><g id="freepik--bat-dog--inject-4"><path d="M392.41,256c-12.3-14.09-4.53-46.75,3.5-58.46S376.16,150.11,347.13,144c24.71,19.86,14.33,37.67,1.13,44.73,19.35,3.63,24.37,16,12.71,26.32,6.18-1.63,17,1.74,19.1,16.46S387.2,256.18,392.41,256Z" style="fill:#BA68C8"></path><path d="M395.91,197.58c8-11.71-19.75-47.47-48.78-53.58,12.42,4.36,25.38,17,29.36,24.5s-28.23,20.23-28.23,20.23c7.95.45,27.61-9,33.32-11.53s-.69,24.92-20.61,37.85c12.17-4.54,21.22-17.67,25.32-24.33,4.49-7.31,5.59-1.68,2.86,10.12-3.32,14.33-14.18,38.82,3.26,55.2C380.11,242,387.88,209.29,395.91,197.58Z" style="fill:#37474f"></path><g id="freepik--Dog--inject-4"><path d="M421.9,308.59c-.95-1.23-4.7-2.44-4.83-3.79-.11-1.07,1.41-2.14,1.87-3a5.85,5.85,0,0,0-.6-5.73c-1.24-1.83-3.86-2.52-4.94-4.35-1.17-2-.83-3.91-3-5.41-3.73-2.54-8,.54-12,.46-2.23,0-3-2-4.77-3a8.61,8.61,0,0,0-5.56-.81,6.55,6.55,0,0,0-2.7,1c-.95.83-.32,1.3-1.68,1.4-1,.09-2.3-.45-3.38-.49a10.71,10.71,0,0,0-6.5,1.93c-3.36,2.27-5.64,5.8-5.14,9.87-4.33-.77-7,2.34-8,6.29-.6,2.35-1.28,9.67,2,10.83-4.67-1.33,1.11,15.93,4.45,12.68-.41,3.73,3,7.54,6.05,9.21,1.36.73,3.09.61,4.25,1.19s1.88,1.78,3,2.37a7.17,7.17,0,0,0,3.9.89,11.11,11.11,0,0,0,1.58,1.05c1.17.64,2.38,1.21,3.56,1.84a45.79,45.79,0,0,0,8.29,3.85,17,17,0,0,0,1.72.38,9,9,0,0,0,3.18.15c.78-.17,1.24-1,1.89-1,1.2-.05,2.13.41,3.31-.22a2.75,2.75,0,0,0,1.29-2.68c1.88-.59,2.16-3.29,1.26-4.75A9.07,9.07,0,0,0,409,337a2.76,2.76,0,0,0,.06-1c7.09-.2,11.42-6.87,9.7-13.46-.74-2.81.15-3.24,2.08-5.31C423.08,314.86,424.09,311.43,421.9,308.59Z" style="fill:#263238"></path><path d="M325.28,319.8c.24-7.26.17-14.55.13-21.84a19.34,19.34,0,0,0-.73-6.35,6.61,6.61,0,0,0-4.3-4.41c-2.07-.52-4.6.72-5,2.83q-.75-3-1.72-6a5.08,5.08,0,0,0-1.68-2.77c-1.77-1.19-4.18.18-5.44,1.89-.14-5.15,2.1-10.32,1-15.36a4.66,4.66,0,0,0-1.3-2.57c-1.3-1.14-3.27-.9-5-.59l4.54-3.56a12.85,12.85,0,0,0,2.95-2.89,4.28,4.28,0,0,0,.53-3.95,2.62,2.62,0,0,0-3.42-1.39,12.68,12.68,0,0,1,2.55-2.16c.86-.73,1.5-2,.89-2.95a2.62,2.62,0,0,0-1.08-.83,10.29,10.29,0,0,0-9,.65,25.41,25.41,0,0,0-7,6.11c.33-.83-.69-1.7-1.58-1.58a3.58,3.58,0,0,0-2.13,1.55c-4.09,5.2-5.83,11.93-6.14,18.54a2,2,0,0,0-2.8.36,4.93,4.93,0,0,0-.77,3,25.48,25.48,0,0,0,1.72,9.34,18.91,18.91,0,0,0,4.6,6.73c-2.15-1.5-5.53-.52-5.46,2.34.11,4.11,3.77,6.05,6.92,7.78-.49.63-1.39.81-1.73,1.76a4.45,4.45,0,0,0,.76,4c1.9,2.31,5.13,3.62,7.78,4.65-3,2.79,1.41,5.11,3.68,6.14a23.18,23.18,0,0,0,5.49,2c2.27.35,3.8-.07,5.79,1.64,1.21,1,2.22,2.3,3.51,3.24a13,13,0,0,0,6.56,2.14c2.34.2,5.15-.2,6.22-2.28a6.82,6.82,0,0,0,.54-2.87C325.23,321.41,325.26,320.61,325.28,319.8Z" style="fill:#37474f"></path><path d="M413.9,306.39l1.51-.34C415.39,305.29,415.07,305,413.9,306.39Z" style="fill:#37474f"></path><path d="M437.25,319.21a8.69,8.69,0,0,0,.76-5c-.17-1.19-1.31-2.91-.67-4,.37-.67,1.25-.81,1.8-1.33a4.48,4.48,0,0,0,1.47-2.77,28.71,28.71,0,0,0-.31-3.72c-.06-1.61,1-2.34,1.69-3.61a13.76,13.76,0,0,0,1.45-4.45c.34-2.43-1.52-4-.25-6.25a5.59,5.59,0,0,0,.71-2.31c.12-.92,1-1.54,1.09-2.46.17-1.28.32-2.87-.73-3.8-3-2.64-6.72.29-9.18,2.05-3.82,2.76-8.83,3-12.71,5.56a12.27,12.27,0,0,1-5.57,2c-.46,0-4.38.31-4.33,0a32.77,32.77,0,0,0-.37,8.15,11,11,0,0,0,3.52,7.18,2.57,2.57,0,0,1,1.07,1.34l-1.28.29a11.92,11.92,0,0,1-.32,2.2,7,7,0,0,0,.8,5.62,5,5,0,0,1,1.17,2.16,4.78,4.78,0,0,1-.95,2.59,7.63,7.63,0,0,0,.38,7.58,6.18,6.18,0,0,1,1.35,2.5,12,12,0,0,1-.44,2.68c-.16,1.38.62,2.32,1,3.58a11,11,0,0,0,.25,1.27c.24.65.74,1.18,1,1.81a6.12,6.12,0,0,1,.53,2.79,26.59,26.59,0,0,0,.38,6.18,8,8,0,0,0,3.09,4.64,16,16,0,0,0,2.36,1.64c1.17.64,2.38,1.21,3.56,1.84a44.91,44.91,0,0,0,8.3,3.85,14.52,14.52,0,0,0,1.71.38,8.53,8.53,0,0,0,3.18.15c.78-.17,1.24-1,1.89-1,1.2,0,2.14.41,3.31-.22a2.73,2.73,0,0,0,1.29-2.68c1.88-.59,2.16-3.29,1.26-4.75a11.52,11.52,0,0,0-3.81-3.57c-1.63-1-4.18-1.87-4.8-3.83a5.14,5.14,0,0,0-1.19-2.6c-.89-.9-2.31-2-2.56-3.29-.36-1.8,1-3.49.78-5.31a3.6,3.6,0,0,0-.32-1.29c-.26-.54-.82-.89-1-1.46-.42-1.17,1-2.51,1-3.77a6.58,6.58,0,0,0-.82-2.63,9.44,9.44,0,0,1-1-2.33A3.23,3.23,0,0,1,437.25,319.21Z" style="fill:#37474f"></path><path d="M371.45,324a21.38,21.38,0,0,0-3.52-1.56c-3-1.15-7.25-1.68-10,.27s-3.54,6.22-3.9,9.42c-.16,1.39.62,2.33,1,3.59a10.93,10.93,0,0,0,.24,1.27c.25.64.75,1.18,1,1.81a6,6,0,0,1,.54,2.79,26.59,26.59,0,0,0,.38,6.18,8,8,0,0,0,3.09,4.63,16.1,16.1,0,0,0,2.36,1.65c1.17.63,2.38,1.21,3.56,1.84a45.57,45.57,0,0,0,8.3,3.85c.55.16,1.14.27,1.71.38a8.74,8.74,0,0,0,3.18.14c.78-.17,1.24-.95,1.89-1,1.2,0,2.13.41,3.31-.21a2.73,2.73,0,0,0,1.29-2.68c1.88-.59,2.16-3.3,1.26-4.75a11.52,11.52,0,0,0-3.81-3.57c-1.63-1-4.18-1.87-4.8-3.84a5.14,5.14,0,0,0-1.19-2.59c-.89-.9-2.31-2-2.56-3.3-.36-1.79,1-3.48.78-5.3-.14-1.37-1.16-2.1-1.51-3.36-.28-1,0-2-.29-2.95A4.94,4.94,0,0,0,371.45,324Z" style="fill:#37474f"></path><path d="M368.89,244.9c-1.25,2.2-2.47,4.35-5.29,4.66-3.56.38-9.19-.31-10.71,3.84-.47,1.28-.31,2.69-1.13,3.88-1.36,2-3.3,2.09-5.45,2.33-4.05.47-9.67,1.5-10.76,6-1,4.13-3.65,3.89-7.23,5.62a14.55,14.55,0,0,0-5.75,4.42c-2.05,2.82-.68,4.12-1.13,7.11-.36,2.33-3.55,4.18-5.08,5.84-2.29,2.48-4.8,5.53-5.52,8.94a6.31,6.31,0,0,0,.16,3.8c.53,1.12,1.76,1.73,2.27,2.87,1.21,2.66-.79,4.93-1.34,7.44-.48,2.15-.44,4.94,1.48,6.39s4.09,1.11,5.25,3.52c1,2.09.36,4.67,1,6.88a7.89,7.89,0,0,0,4.77,5.14c1.7.68,3.21.84,4.71,1.94,2,1.49,2.36,3.28,3.55,5.39a8.57,8.57,0,0,0,5.38,4.3c2.79.59,5.84-.38,8.55.77,3.95,1.66,5.79,7.51,10.83,7,2.11-.19,3.78-2,6-2.12s4.3.84,6.52.72c3.4-.19,3.46-2.24,5-4.48s3.81-.94,5.49-2.29c1.85-1.5,1.67-6.53,1.57-8.54a8.1,8.1,0,0,1,.19-3.47c.4-1.12,1.22-1.91,1.37-3.2.32-2.73-1.63-4.4-2.28-6.8,1.45-.33,3.05.28,4.56-.34,1.89-.76,1.75-2.16,2.82-3.41,2.09-2.46,1.51.34,1.18,1.87a7,7,0,0,0,.8,5.61,5.15,5.15,0,0,1,1.18,2.17,5,5,0,0,1-1,2.59,7.63,7.63,0,0,0,.38,7.58,6.31,6.31,0,0,1,1.35,2.5,11.3,11.3,0,0,1-.45,2.67c-.15,1.39.63,2.33,1,3.59a10.93,10.93,0,0,0,.24,1.27c.25.64.75,1.18,1,1.81a6.26,6.26,0,0,1,.54,2.79,26.06,26.06,0,0,0,.38,6.18,8,8,0,0,0,3.08,4.63,16.41,16.41,0,0,0,2.36,1.65c1.18.64,2.39,1.21,3.56,1.84a46.2,46.2,0,0,0,8.3,3.85,17,17,0,0,0,1.72.38,8.73,8.73,0,0,0,3.18.14c.78-.16,1.24-.95,1.89-1,1.2-.05,2.13.4,3.3-.22a2.71,2.71,0,0,0,1.29-2.68c1.89-.59,2.17-3.3,1.27-4.75a11.52,11.52,0,0,0-3.81-3.57c-1.63-1-4.19-1.87-4.8-3.84a5.23,5.23,0,0,0-1.19-2.59c-.89-.9-2.31-2-2.57-3.3a5.5,5.5,0,0,1,.38-2.5,4.53,4.53,0,0,0,0-2.45c-.27-1-.89-1.83-1.21-2.79a3.69,3.69,0,0,1,.16-2.73,6.35,6.35,0,0,0-.56-5.39,3.49,3.49,0,0,1-.66-1.39,3.2,3.2,0,0,1,.5-1.59,8.64,8.64,0,0,0,.37-6.58c-.29-.84-.71-1.78-.28-2.55a3.85,3.85,0,0,1,1-1,5.07,5.07,0,0,0,1.79-3.53c0-.92-.9-1.52-1-2.42-.14-1.19.53-1.37,1.18-2.12a13.57,13.57,0,0,0,1.76-2.67,8.51,8.51,0,0,0,1.45-.72,6.17,6.17,0,0,0,2.72-3.48,25.21,25.21,0,0,0,.24-3.92,6.92,6.92,0,0,0,7.15-.95,10.74,10.74,0,0,0,3.69-6.47c2.66.5,5.37-1.19,6.75-3.51a14.18,14.18,0,0,0,1.54-7.84c1.8.07,3.78.08,5.17-1.06s1.78-3.3,1.68-5.18a16.94,16.94,0,0,0-1.56-6.33,10.41,10.41,0,0,0,3.39,1.2,3.53,3.53,0,0,0,3.25-1.18c.92-1.21.62-2.95.08-4.38a16.75,16.75,0,0,0-1.9-3.63c-.23-.34-2-2.73-2.35-2.67a5.11,5.11,0,0,0,2.34-1,3.3,3.3,0,0,0,1.27-2.15,5.64,5.64,0,0,0-1.34-3.6,19.39,19.39,0,0,0-5.67-5.26c-1.14-.74-3-1.25-3.79-2.28s-1.14-2.65-1.69-3.75c-2.88-5.79-6.71-11.25-12-15.12a30.46,30.46,0,0,0-8.52-4.38,33.38,33.38,0,0,0-5-1.23,17.38,17.38,0,0,1-3.84-1,8.44,8.44,0,0,0-4.15-.11,7.18,7.18,0,0,0-3,1.12c-2.26,1.54-2.4,4.12-5.19,5.54-1.48.75-1.61,2.11-3.51,2.66s-3.81.35-5.53,1.11c-3.35,1.47-2.52,4.74-4.9,6.9-2.76,2.5-7.58.83-10.8,2.72A10.63,10.63,0,0,0,368.89,244.9Z" style="fill:#455a64"></path><path d="M444.92,246.6l-15.12,1.51L413.28,244l-12.95-12c.4,7.09,6.63,20.91,20.79,24.43a27.37,27.37,0,0,0,19.75-2.3,9.27,9.27,0,0,0,4.88-6.8s0-.05,0-.08C445.8,247,444.89,246.82,444.92,246.6Z" style="opacity:0.2"></path><path d="M386.92,321.9c0-.39-.09-.75-.12-1a18.33,18.33,0,0,1-.56-4.33,5.38,5.38,0,0,0-1.07-4.18,27.6,27.6,0,0,1-2.44-3.68c-1.08-1.84-2.85-2.11-4.78-2.69s-3.07-1.61-4.78-2.58a10.59,10.59,0,0,0-7-.86c-1.92.36-2.9,1.73-4.61,2.34s-7.48,1.69-6.87,4.44c.93-.44,1.48-1.49,2.49-2,1.61-.79,3-.49,4.69-.49,2.64,0,4.7-1.58,7.41-1a9.37,9.37,0,0,1,4.65,2.42c1.27,1.3,1.07,2.38,1.48,4s1.45,1.46,2.62,2.11a8,8,0,0,1,2.83,3,6.74,6.74,0,0,1,.81,3.81,15.13,15.13,0,0,0-.31,1.65h0c1.45-.33,3.05.28,4.56-.34A3.34,3.34,0,0,0,386.92,321.9Z" style="opacity:0.2"></path><path d="M458.47,232.75c3,2.54,6.24,7.56,8.33,11.7,2.17,4.29,8.08,5.8,9.25.81s-3.42-10.64-3.42-10.64S464.65,234.74,458.47,232.75Z" style="fill:#ffa8a7"></path><path d="M471.86,244.08a.89.89,0,0,0,.51.08.82.82,0,0,0,.7-.94c-.38-2.55-2.32-5.52-4.89-7.87-.76,0-1.63,0-2.6,0,3,2.18,5.46,5.51,5.84,8.08A.84.84,0,0,0,471.86,244.08Z" style="fill:#f28f8f"></path><path d="M448.43,197.94c1.14.85,2.29,1.7,3.45,2.52a41.57,41.57,0,0,0,8.72,4.9,12.61,12.61,0,0,0,6.59.8,5.15,5.15,0,0,0,2.62-1c.5-.6.14-1.1.14-1.74,3.14-1.11.84-3.8-.56-5.4,3.87-.67-.14-3.74-1.43-4.88-3.66-3.26-5.56-8.48-9.8-11.07-2-1.22-4.18-1.32-7.78-1.32a54.23,54.23,0,0,0-10.79,1.16c-2,.4-6.37,1.62-6.43,4,0,1.35,2.52,2.19,4,3.43s3.33,2.72,5,3.91C444.26,194.76,446.34,196.37,448.43,197.94Z" style="fill:#37474f"></path><path d="M405.25,220.18c.62,2.53,5.94,10.35,4.79,12.71-.73,1.49-2.55,2.36-2,4.06.71,2.31,3.76,4.81,5.73,6.1a30.22,30.22,0,0,0,9.23,4c4.46,1.13,9.12.53,13.68.21a11.21,11.21,0,0,0,8.89-5,4.67,4.67,0,0,0,3.82-2.54,9.43,9.43,0,0,0,6.07,3.1,7.07,7.07,0,0,0,3.19-.5c.41-.19,2.57-1.78,2.18-2.41.63,1,1.4,2.11,2.57,2.29a3.3,3.3,0,0,0,1.93-.42c1.39-.69,5.08-3.53,4-5.56a3.41,3.41,0,0,0,4.46,1.11,5.58,5.58,0,0,0,2.71-4.1,16.62,16.62,0,0,0-.17-5.07,1.22,1.22,0,0,0,1.31-.42,3.18,3.18,0,0,0,.58-1.33c.85-3.31.92-7.07-1-9.87a16.05,16.05,0,0,0-4.21-3.74l-6.05-4.21a13.38,13.38,0,0,1-2.76-2.32c-2.1-2.56-.82-5-1.37-7.89a6,6,0,0,0-2.41-3.85c-1.34-1.14-2.54-2-3.81-3.24s-3-2.44-4.52-3.66c-8.74-6.78-23-5-33.6,0C403,194.82,401.73,205.8,405.25,220.18Z" style="fill:#455a64"></path><path d="M447.63,214.33a3.23,3.23,0,1,1-3.23-3.23A3.23,3.23,0,0,1,447.63,214.33Z" style="fill:#263238"></path><path d="M444.63,213.3a1.12,1.12,0,1,1-1.12-1.12A1.11,1.11,0,0,1,444.63,213.3Z" style="fill:#fafafa"></path><path d="M429.86,239s1.44,5.56,6,8.31l.8-.06a11.21,11.21,0,0,0,8.89-5,4.67,4.67,0,0,0,3.82-2.54C439.61,244.26,429.86,239,429.86,239Z" style="opacity:0.2"></path><path d="M445.54,242.27c-7.14,5.43-19.2,4.22-26.87-.47-6.27-3.84-10-10.93-9.7-20.19,0,0-6.32,2.11-7.08,6.89-.36,5,2.18,13.79,10.52,19.4,7.38,5,24.39,9.59,32.87,1.31C445.28,249.21,447.86,246.48,445.54,242.27Z" style="fill:#BA68C8"></path><path d="M424.18,194.3c.74-.41.47-4.64-1.72-5.58-3.9-1.66-9.74,1.15-13.47,2.87s-8,4.74-10.42,8.33a60.94,60.94,0,0,0-7.33,14.74c-.84,2.57-2.32,6.28-1.11,9a3.41,3.41,0,0,0,1.69,1.7,1.71,1.71,0,0,0,1.46-.12s-.65,1.8-.79,2.23a17,17,0,0,0-.52,2.35,5.93,5.93,0,0,0,1,5c1.7,2.07,4.15,1.68,6.33.81,1.88,3.65,7.89,1.56,8.83-1.87,2.42,1.7,5.44-.63,5.95-3.4,2.85,1.7,3.71-1.71,3.63-7,0-1.34,0-2.72-.05-4-.25-5.3-.11-11,1.35-16.1C419.89,200.16,421.25,196,424.18,194.3Z" style="fill:#37474f"></path><path d="M474.87,226.31c-2.1.81-6.72-1.09-8.34-3.06a4.48,4.48,0,0,1,.89-6.36c1.93-1.24,5.82-2.74,7.83-2.5s3.82,2.88,3.8,4.25C479,221.28,477.75,225.21,474.87,226.31Z" style="fill:#263238"></path><path d="M452.28,187.64c.16-.42.82-17.79-2.29-19.25s-12.78,16-12.78,16S446.51,183.69,452.28,187.64Z" style="fill:#263238"></path><path d="M419.44,201.81c-.4-.31-11.1-16.57-9-19.77s19.85,6.22,19.85,6.22A76.68,76.68,0,0,0,419.44,201.81Z" style="fill:#263238"></path><path d="M452.28,187.64c-4.92-2.25-18.84-6.63-32.84,14.17.51-4.49,5.13-13.72,14.9-16.74S450.35,186,452.28,187.64Z" style="fill:#263238"></path></g><path d="M374.05,253.17a4.4,4.4,0,0,0-.17-6.29c-15.73-14.66-15.41-33.79-21.76-46.91-10.88-22.49-60.55-14.36-81.57-12.94,38.24,12.51,32.63,27.49,24.89,40.13,25.21-3.71,33.32,6.38,31.89,22.61,13.76-6.36,22.77-7.85,33.27-1.29a33.72,33.72,0,0,0,13.45,4.69Z" style="fill:#BA68C8"></path><path d="M352.12,200c-10.88-22.49-60.55-14.36-81.57-12.94,7.93.9,40.26.8,48.5,2.78s-12,28.22-23.61,37.35c15.84-7.31,34.42-30.88,40.66-30.11s10.53,29-8.77,52.72c10.49-6.88,18.06-30.18,19.86-37.45s4.95.56,9.71,15.23,12.3,23,17.15,25.62h0a4.4,4.4,0,0,0-.17-6.29C358.15,232.22,358.47,213.09,352.12,200Z" style="fill:#37474f"></path></g></g><g id="freepik--Cat--inject-4"><g id="freepik--vampire-kitten--inject-4"><g id="freepik--Tail--inject-4"><path d="M169.77,261a32.47,32.47,0,0,0,4.38,18.4c3.51,5.76,8.14,10.78,11.21,16.82,7,13.69,1.48,33.19-8.49,43.65,10.56-2.86,22.69-8.66,27.9-13.44s8.35-12,6.78-18.78c-.13-.57-.42-1.25-1-1.29a1.5,1.5,0,0,0-1,.48l-2.95,2.58a39.62,39.62,0,0,0-.33-31.19c-2.17-4.86-6.3-9.65-8.76-14.37s-4.22-11-1.76-15.78c3.44-6.64,7.81-8.06,11.77-7.08-2.82-4.81-8.85-5-13.74-4a16.38,16.38,0,0,0-8.92,5.63,33.24,33.24,0,0,0-5.27,9.3,12.52,12.52,0,0,1,.67-10.38A4.56,4.56,0,0,0,178,243,28.33,28.33,0,0,0,169.77,261Z" style="fill:#455a64"></path><path d="M192.49,291.76c-2-11.64-8.16-25-21.3-37.73a27.83,27.83,0,0,0-1.42,7,32.47,32.47,0,0,0,4.38,18.4c3.51,5.76,8.14,10.78,11.21,16.82,7,13.69,1.48,33.19-8.49,43.65a79.39,79.39,0,0,0,7.6-2.49c.66-.47,1.27-.93,1.8-1.37C195.08,328.78,195.34,308.59,192.49,291.76Z" style="fill:#37474f"></path></g><path d="M76.13,218.75c3.71,9.5-6.22,26.92-26.11,47.51s-28,40.38-17.09,71.49c5.41-12.06,18.38-16.62,29-14.93,17,2.73,35.1,18.53,56.75,11.66s34.8-40.58,34.8-40.58l-29.89-75.15Z"></path><path d="M107.52,333.19c-9.23,0-18-3.63-26.47-7.15-6.43-2.67-12.5-5.19-18.7-6.18a30.51,30.51,0,0,0-4.81-.38c-7.82,0-17.42,3-23.73,11-7.65-27.65,1.81-45,18.36-62.17,13.68-14.16,28.82-33.1,27.68-46.6h41.66l28.68,72.12c-2.41,5.66-14.54,32.06-32.47,37.75a33.16,33.16,0,0,1-10.19,1.57Z" style="fill:#BA68C8"></path><path d="M107.52,333.19c-9.23,0-18-3.63-26.47-7.15-6.43-2.67-12.5-5.19-18.7-6.18a30.51,30.51,0,0,0-4.81-.38c-7.82,0-17.42,3-23.73,11-7.65-27.65,1.81-45,18.36-62.17,13.68-14.16,28.82-33.1,27.68-46.6h41.66l28.68,72.12c-2.41,5.66-14.54,32.06-32.47,37.75a33.16,33.16,0,0,1-10.19,1.57Z" style="opacity:0.2"></path><path d="M117.25,221.57s4.53-5.79,10.73-8.22C144.9,206.72,171.64,196,172.82,177c-21.3,8.88-98.35,11.39-125-14.33-3.11,13-2.05,46.44,30.5,55.72Z" style="fill:#BA68C8"></path><path d="M117.25,221.57s4.53-5.79,10.73-8.22C144.9,206.72,171.64,196,172.82,177c-21.3,8.88-98.35,11.39-125-14.33-3.11,13-2.05,46.44,30.5,55.72Z" style="opacity:0.2"></path><path d="M111.52,281.09c.78,49.44-17.86,62.39-22.52,63.68s-10.88,1.56-14.24-4.14,8-8.54,8-8.54c4.15-12.95.74-32.38-4.64-39.35-6-7.84-10.85-11.46-10.88-26.28S111.52,281.09,111.52,281.09Z" style="fill:#37474f"></path><path d="M83.74,328.39h0a34.5,34.5,0,0,1-1,3.7,10.86,10.86,0,0,1,9.47,2.39S94.25,329.2,83.74,328.39Z" style="fill:#263238"></path><path d="M86,337.79a.57.57,0,0,0-.26,0,6.15,6.15,0,0,0-2.4.47A5.55,5.55,0,0,0,80.79,341a6.73,6.73,0,0,0-.43,3.55c0,.17,0,.35.09.52a11.37,11.37,0,0,0,1.83.35c0-.14-.09-.29-.12-.44a5.66,5.66,0,0,1,.27-2.94,8.44,8.44,0,0,1,3.59-4,.3.3,0,0,0,.08-.08.15.15,0,0,0,0-.16A.23.23,0,0,0,86,337.79Z" style="fill:#263238"></path><path d="M76.81,343.13A8.11,8.11,0,0,1,77,341a8.47,8.47,0,0,1,2.62-4.63c.12-.11.26-.24.24-.42-.11-.5-2.24.87-2.46,1.06a6.45,6.45,0,0,0-1.84,2.92,7.81,7.81,0,0,0-.3,1.42A9.86,9.86,0,0,0,76.81,343.13Z" style="fill:#263238"></path><path d="M145.79,343.06c-8.43,4-23.38,2.68-29.25-8.3s-4-50.06,11.44-55.12S159.46,326.78,145.79,343.06Z" style="fill:#37474f"></path><path d="M78.85,213.94c-1.77,2.33-2.22,5.25-3.69,8.13-1.94,3.82-4.77,7.76-6,12.18-3.73,12.9-4.31,27.5,0,38.65,7,17.87,24.89,25.89,30.57,32.62s8.78,26.41,4.64,39.36c0,0-11.39,2.84-8,8.54s9.57,5.44,14.23,4.14,23.3-14.24,22.53-63.69a36.08,36.08,0,0,1,10.73,16.57,39.82,39.82,0,0,0-3.57,17.17c.29,8.28,5.52,15.45,5.52,15.45a45.71,45.71,0,0,0-10.35.78c-4.4,1-5.44,4.92-4.4,7.51s6,5.18,10.87,4.14,31.33-11.91,40.13-19.16,9.06-27.44,6.21-44.27S173.75,254.78,145,238l-18.5-25.61Z" style="fill:#455a64"></path><path d="M78.85,213.94c-2.33,1.92-3.69,8.13-3.69,8.13-16.28,11-11.59,38.25,3.71,53.7,0,0,2.52-10.95,15.35-19.61,15.69-10.59,43.18-18.69,32.3-43.82Z" style="fill:#f5f5f5"></path><path d="M126.52,212.34l-47.67,1.6h0c-.43.36-3.28,7.76-3.69,8.13a15,15,0,0,0-2.11,1.62c1.27,2.7,4,5.16,9.44,6.89,7.74,2.48,27.39,1.85,39.17-10,0,0,1,9.19-16.19,20.57-9.66,6.41-22.86,9.73-26.6,34.64h0s2.52-10.95,15.35-19.61C109.91,245.57,137.4,237.47,126.52,212.34Z" style="fill:#e0e0e0"></path><path d="M114.67,223.12c-3,6.77,2.37,22.28,17.55,31.76s45.72,12.35,53.21,26.75c-3.53-12.09-9.72-24.47-23.45-34.53s-15.53-10.13-20-16.57-10.15-17.8-10.15-17.8S119.2,214.23,114.67,223.12Z" style="fill:#263238"></path><path d="M74.22,218.69l.94,3.38s3.54,5.4,13.17,6c11.06.71,28.1-.91,38.19-15.74l-1.31-3.26Z" style="fill:#BA68C8"></path><path d="M105.33,341.18h0a35.77,35.77,0,0,1-1,3.7,10.86,10.86,0,0,1,9.47,2.39S115.84,342,105.33,341.18Z" style="fill:#37474f"></path><path d="M107.61,350.58a.5.5,0,0,0-.27,0A6.1,6.1,0,0,0,105,351a5.47,5.47,0,0,0-2.57,2.81,6.63,6.63,0,0,0-.43,3.55,5.16,5.16,0,0,0,.09.52,11.25,11.25,0,0,0,1.82.35c0-.15-.08-.29-.11-.45a5.62,5.62,0,0,1,.26-2.93,8.54,8.54,0,0,1,3.59-4,.73.73,0,0,0,.09-.08.15.15,0,0,0,0-.16Z" style="fill:#263238"></path><path d="M98.39,355.92a9,9,0,0,1,.16-2.14,8.49,8.49,0,0,1,2.63-4.63c.12-.11.26-.24.23-.42-.11-.5-2.23.87-2.45,1a6.54,6.54,0,0,0-1.84,2.93,7,7,0,0,0-.3,1.42A10.22,10.22,0,0,0,98.39,355.92Z" style="fill:#263238"></path><path d="M141,349.75a.48.48,0,0,0-.24-.11,6.06,6.06,0,0,0-2.43-.21,5.5,5.5,0,0,0-3.25,2,6.54,6.54,0,0,0-1.28,2.73,11.45,11.45,0,0,0,1.61.78,5.94,5.94,0,0,1,.95-2.06A8.53,8.53,0,0,1,140.9,350,.22.22,0,0,0,141,350a.16.16,0,0,0,0-.15A.19.19,0,0,0,141,349.75Z" style="fill:#263238"></path><path d="M131.69,352.41a8.33,8.33,0,0,1,.72-1.91,8.49,8.49,0,0,1,3.8-3.72c.15-.07.32-.16.35-.34,0-.51-2.39.22-2.65.34a6.36,6.36,0,0,0-2.58,2.3,6.82,6.82,0,0,0-.6,1.09,5.12,5.12,0,0,0,.31,1.18A3.89,3.89,0,0,0,131.69,352.41Z" style="fill:#263238"></path><path d="M152.35,298.25c-10.13,9-15.79,30.14-6.56,44.81C136.56,333.19,134.62,312.79,152.35,298.25Z" style="fill:#37474f"></path><path d="M130.19,285.33c2.31,4.05,8.65,23-5.65,57.18C132.93,332.61,142.77,303.12,130.19,285.33Z" style="fill:#37474f"></path><path d="M90.58,233.53a10.49,10.49,0,0,0-2-5,12.16,12.16,0,0,0-2-2.32,11.31,11.31,0,0,0-1.49-1.08,2.8,2.8,0,0,0-1.53-.55s-.09,0-.13.07l0,0a1.91,1.91,0,0,0-.71-.14,4,4,0,0,0-1.76.37,8.24,8.24,0,0,0-2.52,1.78,12.77,12.77,0,0,0-3.55,4.85,3.18,3.18,0,0,0,.39,3,3.62,3.62,0,0,0,2.54,1.36,4.26,4.26,0,0,0,3.76-2.25c0,.25,0,.49,0,.71-.16,1.39-.36,2.78-.65,4.14-.57,2.62-1.7,5.07-2.29,7.66,0,.16.1.67.34.44a10.18,10.18,0,0,0,2-3.55,22.58,22.58,0,0,0,1.14-4,23.76,23.76,0,0,0,.51-3.93c0-.53.07-1.16.07-1.8a13.56,13.56,0,0,0,.78,1.14.32.32,0,0,0-.12.18,19.06,19.06,0,0,0-.27,3.93,29.64,29.64,0,0,0,.15,3.77,22.39,22.39,0,0,0,.75,3.9,28.94,28.94,0,0,0,1.52,3.47c.12.26.31,0,.31-.2a11,11,0,0,0-.62-3,21.57,21.57,0,0,1-.59-4c-.07-1.35,0-2.72,0-4.08,0-.71.08-1.42.12-2.13,0-.14,0-.27,0-.4a4.54,4.54,0,0,0,2.91,1.22A2.79,2.79,0,0,0,90,236,3.81,3.81,0,0,0,90.58,233.53Zm-8.9-6.82c-.1.48-.18,1-.29,1.43a14.21,14.21,0,0,1-.77,2.22c-.53,1.24-1.21,2.81-2.57,3.32a1.5,1.5,0,0,1-.78.09L77,233.7a.36.36,0,0,1-.13-.09.28.28,0,0,1-.1-.16.8.8,0,0,1,0-.31,3.15,3.15,0,0,1,.29-1.09,13.09,13.09,0,0,1,2.76-3.8,10.19,10.19,0,0,1,1.85-1.62A.25.25,0,0,0,81.68,226.71Zm5.48,8.3a2.13,2.13,0,0,1-1.49-.69,6.26,6.26,0,0,1-2.24-3.42,10.35,10.35,0,0,1,.06-4.15c.05-.29.16-.63.45-.7a.67.67,0,0,1,.41.07c1,.43,1.71,1.74,2.32,2.63a10.52,10.52,0,0,1,1.57,3.58C88.47,233.31,88.55,235,87.16,235Z" style="fill:#BA68C8"></path><path d="M122.06,189.38c3.66-6.42,2.66-21.42-2.77-24.46-5.12-2.88-16.9,12.22-16.9,12.22S112.08,187.83,122.06,189.38Z" style="fill:#37474f"></path><path d="M115.88,185.53c-6.83-4-13.49-8.39-13.49-8.39s11.24-14.35,15.45-11.95C120.49,166.32,123.18,174.74,115.88,185.53Z" style="fill:#ffa8a7"></path><path d="M106.27,177.37a6.71,6.71,0,0,0,2.78-2.54,7,7,0,0,0,1.29-4.19c2.53,1.73,3.59,5.91,3.59,5.91a4.06,4.06,0,0,0,3.45-4.28c1.88,2,1.82,7.13-1.42,9.79a9,9,0,0,1-5.11-.86C108,179.88,106.46,178.39,106.27,177.37Z" style="fill:#f28f8f"></path><path d="M114,183c2.43-1.68,4-5.26,2.92-7.73,0,0-1.67,2.11-3.63,2.19,0,0-1-7-4.81-8,0,0,.84,4.59-2.59,7.09C104.82,183,114,183,114,183Z" style="fill:#37474f"></path><path d="M93.05,174c-3.39-5.64-13.15-11.19-19-7.07-3.32,2.32,3.15,18.82,3.15,18.82S88.21,181.29,93.05,174Z" style="fill:#37474f"></path><path d="M88.33,178.61c-5.45,3.74-11.18,7.15-11.18,7.15s-6.47-16.5-3.15-18.82C76.27,165.87,83.07,168.2,88.33,178.61Z" style="fill:#ffa8a7"></path><path d="M77.83,182.11a7.13,7.13,0,0,0-1.39-1.9c-.37-1-.77-2.26-1.15-3.55a12.45,12.45,0,0,1,5.32-1.27,6,6,0,0,0-1.51-3.63c2.19-.63,5.82,1.51,6.58,5.21a11.22,11.22,0,0,1-2.4,3.79c-1.21.64-2.3,1.18-3.2,1.61A5.19,5.19,0,0,1,77.83,182.11Z" style="fill:#f28f8f"></path><path d="M84.74,178.25c-.73-2.57-3.17-4.92-5.37-4.78a5.89,5.89,0,0,1,.83,3.74S74.46,176,72.67,179a6.6,6.6,0,0,1,5,4.3C82.46,186.08,84.74,178.25,84.74,178.25Z" style="fill:#37474f"></path><path d="M95.33,173.6c-16.18,1.57-26.12,16.52-30.55,26.88-2.15,5,7.38,22.05,20,24,17.56,2.66,35.73-6.79,42.29-16.51C132.88,199.4,115.78,174.48,95.33,173.6Z" style="fill:#455a64"></path><path d="M95.33,173.59c-9.11.89-16.23,6-21.52,12.17h0c3.81-2.51,9.27-6.74,11.94-1.17s1.69,13.73,1.69,13.73S92,186.86,97.92,183.86s11.68-4.31,18.89,1.9c7,6,9.54,10.55,9.71,10.86C122.06,186.37,109.51,174.21,95.33,173.59Z" style="fill:#37474f"></path><path d="M92.79,213.35a14.69,14.69,0,0,0,1.67,3.58c.73.72,1.9-4.59,1.9-4.59A10.89,10.89,0,0,1,92.79,213.35Z" style="fill:#f5f5f5"></path><path d="M76.67,210.56a5.65,5.65,0,0,0,3.36,1.3s-1.36,2.9-1.89,3S76.67,210.56,76.67,210.56Z" style="fill:#f5f5f5"></path><path d="M102.36,197.92a2.6,2.6,0,1,1-3-2.17A2.59,2.59,0,0,1,102.36,197.92Z" style="fill:#263238"></path><path d="M78.52,196.26a2.59,2.59,0,1,1-3-2.18A2.61,2.61,0,0,1,78.52,196.26Z" style="fill:#263238"></path><path d="M105.34,209.31l0,0a.53.53,0,0,1-.14-.7c1.5-2.5,4.29-5.36,9.09-4.79a.5.5,0,0,1-.12,1c-4.31-.51-6.82,2.07-8.17,4.32A.47.47,0,0,1,105.34,209.31Z" style="fill:#263238"></path><path d="M106.69,210.51l-.13-.1a.52.52,0,0,1,0-.71,8.34,8.34,0,0,1,6.61-2,.5.5,0,0,1-.19,1,7.42,7.42,0,0,0-5.77,1.74A.46.46,0,0,1,106.69,210.51Z" style="fill:#263238"></path><path d="M106.5,212.58a.51.51,0,0,1-.2-.23.54.54,0,0,1,.25-.67,9.68,9.68,0,0,1,8.91.73.51.51,0,0,1,.16.69.46.46,0,0,1-.64.19h0a8.72,8.72,0,0,0-8-.68A.44.44,0,0,1,106.5,212.58Z" style="fill:#263238"></path><path d="M69.73,204.05h0a.53.53,0,0,0,.28-.66c-1-2.74-3.15-6.1-8-6.49a.49.49,0,0,0-.51.47.48.48,0,0,0,.43.54c4.33.35,6.28,3.37,7.16,5.84A.46.46,0,0,0,69.73,204.05Z" style="fill:#263238"></path><path d="M68.17,205a.37.37,0,0,0,.14-.07.53.53,0,0,0,.13-.71,8.42,8.42,0,0,0-6.08-3.27.5.5,0,0,0-.48.51.48.48,0,0,0,.47.5,7.39,7.39,0,0,1,5.3,2.84A.46.46,0,0,0,68.17,205Z" style="fill:#263238"></path><path d="M68,207a.44.44,0,0,0,.23-.18.53.53,0,0,0-.1-.71,9.68,9.68,0,0,0-8.89-1,.53.53,0,0,0-.29.65.48.48,0,0,0,.6.31h0a8.68,8.68,0,0,1,8,.91A.45.45,0,0,0,68,207Z" style="fill:#263238"></path><path d="M92.14,213.87a6.67,6.67,0,0,1-3.52-.94,7.71,7.71,0,0,1-3.14-3.88,6.5,6.5,0,0,1-3.3,2.86A5.35,5.35,0,0,1,75.54,210a.49.49,0,0,1,.13-.69.5.5,0,0,1,.69.12A4.4,4.4,0,0,0,81.81,211,4.69,4.69,0,0,0,85,207.06a3.87,3.87,0,0,1,0-.48.5.5,0,0,1,1-.09,3.39,3.39,0,0,1,0,.55,7,7,0,0,0,3.14,5c2,1.18,4.53,1.05,7.42-.37a.5.5,0,1,1,.44.9A11.05,11.05,0,0,1,92.14,213.87Z" style="fill:#263238"></path><path d="M85.34,208c-.82-.06-2.8-2-2.88-3.34s6.56-.44,6.57.61C89,206.72,86.17,208,85.34,208Z" style="fill:#f28f8f"></path><path d="M172.82,177c-6.1,26.76-50.72,27-58.15,46.15,11-5.71,14.74-6.83,30.43-13.76C165.2,200.48,175.74,187.54,172.82,177Z"></path></g></g><g id="freepik--dog-1--inject-4"><g id="freepik--pumpkin-dog--inject-4"><g id="freepik--tail--inject-4"><path d="M287.28,395.73c32.18,4.08,54.18-20.18,39.06-43.74-4.6-7.16-6.55-5.31-4.31,1.43,5.78,17.41-6.38,37.68-35.76,31.67Z" style="fill:#37474f"></path><path d="M322,353.42a26.36,26.36,0,0,1,.92,13.42,28.59,28.59,0,0,1-.08,2.91,8.56,8.56,0,0,0,.31,4.39,5.48,5.48,0,0,0,3.38-3.08,16.22,16.22,0,0,0,1.14-4.57,8.89,8.89,0,0,1,1.1,4.39,8,8,0,0,0,2.39-3A28.4,28.4,0,0,0,326.34,352C321.74,344.83,319.79,346.68,322,353.42Z" style="fill:#f5f5f5"></path></g><g id="freepik--Legs--inject-4"><path d="M237.77,356.73c2.84,37.81-2.24,53.54-8.43,62.64-1.51,2.22-8.79,5.17-10.39,5.62-4.94,1.37-11.53,1.64-15.1-4.4s8.51-9.06,8.51-9.06c4.39-13.73-1-33.62-6.7-41-6.41-8.32-9.73-12.87-9.77-28.6S237.77,356.73,237.77,356.73Z" style="fill:#37474f"></path><path d="M213.35,407.53h0a39.62,39.62,0,0,1-1,4,11.54,11.54,0,0,1,10,2.54S224.49,408.39,213.35,407.53Z" style="fill:#263238"></path><path d="M215.79,417.58a.42.42,0,0,0-.27,0,6.43,6.43,0,0,0-2.54.5,5.8,5.8,0,0,0-2.73,3,7.1,7.1,0,0,0-.46,3.76l.09.55a13,13,0,0,0,1.94.38c0-.16-.09-.31-.12-.48a6,6,0,0,1,.28-3.11,9,9,0,0,1,3.81-4.21s.07-.05.09-.09a.15.15,0,0,0,0-.16Z" style="fill:#263238"></path><path d="M206,423.24a9.1,9.1,0,0,1,3-7.18.56.56,0,0,0,.25-.44c-.12-.53-2.37.92-2.61,1.12a6.87,6.87,0,0,0-2,3.1,7.81,7.81,0,0,0-.32,1.51A10.64,10.64,0,0,0,206,423.24Z" style="fill:#263238"></path></g><g id="freepik--legs--inject-4"><path d="M259.55,356.73c-2.84,37.81,2.24,53.54,8.42,62.64,1.51,2.22,8.79,5.17,10.4,5.62,4.94,1.37,11.53,1.64,15.1-4.4s-8.51-9.06-8.51-9.06c-4.4-13.73,1-33.62,6.69-41,6.41-8.32,9.74-12.87,9.78-28.6S259.55,356.73,259.55,356.73Z" style="fill:#37474f"></path><path d="M284,407.53h0a37.11,37.11,0,0,0,1,4,11.52,11.52,0,0,0-10,2.54S272.83,408.39,284,407.53Z" style="fill:#263238"></path><path d="M281.52,417.58a.46.46,0,0,1,.28,0,6.5,6.5,0,0,1,2.54.5,5.84,5.84,0,0,1,2.73,3,7.1,7.1,0,0,1,.46,3.76c0,.18-.06.37-.1.55a12.56,12.56,0,0,1-1.94.38,3.76,3.76,0,0,0,.13-.48,6,6,0,0,0-.29-3.11,9,9,0,0,0-3.8-4.21.26.26,0,0,1-.09-.09.15.15,0,0,1,0-.16A.27.27,0,0,1,281.52,417.58Z" style="fill:#263238"></path><path d="M291.3,423.24a9.49,9.49,0,0,0-.17-2.26,9.11,9.11,0,0,0-2.79-4.92.53.53,0,0,1-.25-.44c.12-.53,2.37.92,2.6,1.12a6.81,6.81,0,0,1,2,3.1,7.81,7.81,0,0,1,.32,1.51A10.64,10.64,0,0,1,291.3,423.24Z" style="fill:#263238"></path></g><g id="freepik--Pumpkin--inject-4"><g id="freepik--pumpkin--inject-4"><path d="M226,294.63c12.95,5.74,24.4,13.05,24.57,13.59,0,0,13.49-7.84,23.9-12.28-5.78-4.13-11-5.35-22.32-6C240.25,289.17,231.06,290,226,294.63Z" style="fill:#BA68C8"></path><path d="M226,294.63c12.95,5.74,24.4,13.05,24.57,13.59,0,0,13.49-7.84,23.9-12.28-5.78-4.13-11-5.35-22.32-6C240.25,289.17,231.06,290,226,294.63Z" style="opacity:0.25"></path><path d="M238.41,290s-2.33,1-1.1,2.17,10.59,4.35,15.13,3.84,11.15-3.23,9.86-5.08a27.23,27.23,0,0,1,12.17,5c-10.41,4.44-23.9,12.3-23.9,12.28-.17-.54-11.62-7.85-24.57-13.59C228.88,292,233.12,290.58,238.41,290Z" style="opacity:0.1"></path><g id="freepik--pumpkin--inject-4"><path d="M251,308.62c-12.07-3.23-25.65-3-36.19,3.89-15.84,10.33-25.24,29.56-26,50-5.64-30.88,13.78-75.52,47.83-68.2C249.42,297.1,251.14,304.41,251,308.62Z" style="fill:#BA68C8"></path><path d="M251,308.62c-12.07-3.23-25.65-3-36.19,3.89-15.84,10.33-25.24,29.56-26,50-5.64-30.88,13.78-75.52,47.83-68.2C249.42,297.1,251.14,304.41,251,308.62Z" style="opacity:0.1"></path><path d="M251,307.3c0-.37-.07-.76-.13-1.16a11.61,11.61,0,0,0-.91-3.06,2,2,0,0,0-.1-.21c-1.22-2.54-3.61-5.12-8.09-7-.35-.14-.7-.28-1.07-.41h0a34.21,34.21,0,0,0-4.08-1.15c3.23,2,5.67,4.76-1,5s-16.81.17-24.68,5.34-9.56,8.28-11.84,11.21c-1,1.28-2.28,1.41-2.17-.24a74.11,74.11,0,0,0-8.3,24.85c-.33,2.84-.57,5.72-.8,8.61l0,1.27c.81-.28,1.64-.56,2.49-.83a62,62,0,0,1,13.86-27.68l0,0c.74-.85,1.51-1.68,2.3-2.47.2-.21.41-.39.62-.59.55-.54,1.11-1.07,1.68-1.58l.95-.83c.53-.45,1.07-.89,1.62-1.31.29-.23.57-.46.87-.68.85-.64,1.71-1.25,2.59-1.83,9.65-6.29,21.84-7,33.1-4.62,1,.22,2.07.46,3.09.73a9.83,9.83,0,0,0,0-1.21Z" style="opacity:0.1"></path></g><path d="M212.08,307.81c10.82-6.34,19.93-6.22,28.2-3.13,7.21,2.69,1.22,2.34-.8,3.64-1.53.78-10.18,4.24-11.53,5.24-13.6,10-19.49,40.6-24,58.89-1.48,5.95-2.53,15.1,1.25,22.78-7.85-2.78-16.67-10.78-17.86-21.4C184.77,351.27,191.15,320.07,212.08,307.81Z" style="fill:#BA68C8"></path><path d="M240.28,304.68l-1.06-.37-.25-.09c-.35-.11-.71-.23-1.07-.33l-.06,0-1-.28-.22-.06-1.1-.26h-.07c-.36-.08-.72-.14-1.09-.2l-.16,0c-.38-.07-.77-.12-1.16-.17H233l-1.17-.11h-.08c-.41,0-.82-.05-1.24-.06h0c-.85,0-1.71,0-2.58,0h0a30.9,30.9,0,0,0-8.27,1.71c6.56-1.48,13.87-.86,13.76,1.55-.07,1.54-9.29,6.34-15.26,11.23-12.52,10.26-19.72,27.34-21.05,44.27-.91,11.58-.53,16.27-2.92,18.58-1.21,1.17-7.22-9.15-7.22-9.15s.25,1.94.41,2.93a27.7,27.7,0,0,0,17.86,21.4c-3.78-7.68-2.73-16.83-1.25-22.78,4.55-18.29,10.45-48.86,24-58.89,1.35-1,10-4.46,11.53-5.24a13,13,0,0,1,3.05-1,3.72,3.72,0,0,0,1-.37.47.47,0,0,0,.24-.27.37.37,0,0,0,0-.11C243.69,306.16,242.76,305.61,240.28,304.68Z" style="opacity:0.1"></path><path d="M251.72,307.5s-9.05,7.06-13.36,15.22c-9.76,18.51-15,49.83-12.26,70.81.72,5.54,2.18,10.21,5.43,13.48-4.36,1.56-20-2.54-25.74-10.57-7.32-10.32-6.46-25.1-5.59-31C203,346.6,210,325.88,226,314.69c9.18-6.42,21.62-9.26,25.72-7.21Z" style="fill:#BA68C8"></path><path d="M251.72,307.5s-9.05,7.06-13.36,15.22c-9.76,18.51-15,49.83-12.26,70.81.72,5.54,2.18,10.21,5.43,13.48-4.36,1.56-20-2.54-25.74-10.57-7.32-10.32-6.46-25.1-5.59-31C203,346.6,210,325.88,226,314.69c9.18-6.42,21.62-9.26,25.72-7.21Z" style="fill:#fff;opacity:0.15"></path><path d="M228.64,402.83a27.09,27.09,0,0,1-1.73-5.22c-.3-1.28-.56-2.64-.81-4.08v0c-.54-3.21-.39-8.89.15-15.59,1.17-14.41,2.31-29.79,6.55-43.72l.65-9.67c-15.36,17.69-24.7,49.56-14.73,72.82,0,0-5.49-.35-11.61-8.25-5.55-7.16-7.15-16.73-7.29-18.86-.35,7.19.18,18,6,26.21s21.38,12.13,25.74,10.57A14.89,14.89,0,0,1,228.64,402.83Z" style="opacity:0.05"></path><g id="freepik--pumpkin--inject-4"><path d="M246.31,308.18c11.33-3,26.21-2.63,36.13,4.35,15.15,10.65,25.2,30.48,25.34,50.37,5.52-31.64-12.87-75.17-46.92-68.82C248.14,296.46,246.19,304,246.31,308.18Z" style="fill:#BA68C8"></path><path d="M246.31,308.18c11.33-3,26.21-2.63,36.13,4.35,15.15,10.65,25.2,30.48,25.34,50.37,5.52-31.64-12.87-75.17-46.92-68.82C248.14,296.46,246.19,304,246.31,308.18Z" style="opacity:0.1"></path><path d="M290.62,319.68a61,61,0,0,1,15.83,30.15c.78.26,1.54.53,2.3.8a76.3,76.3,0,0,0-8.49-34.4c-.12,1.22-1.26,1-2.16-.18-2.25-3-3.9-6.09-11.71-11.36s-18-5.38-24.61-5.65-4.17-3-.92-5a24.67,24.67,0,0,0-9.11,3.56A14,14,0,0,0,250.1,299l-.26.27c-.13.12-.25.25-.37.38a12,12,0,0,0-3,6.27c0,.3-.08.59-.1.87l0,.31c0,.39,0,.77,0,1.12,11.33-3,26.16-2.9,36.13,4.35A53.08,53.08,0,0,1,290.62,319.68Z" style="opacity:0.1"></path></g><path d="M285.19,307.86c-10.74-6.48-19.85-6.47-28.15-3.48-7.23,2.6-1.25,2.32.75,3.64,1.52.8,10.13,4.37,11.47,5.39,13.47,10.21,18.89,40.62,23.2,59.21,1.38,6,2.28,15.14-1.64,22.78,7.9-2.68,16.86-10.57,18.22-21.19C311.93,351.7,306,320.4,285.19,307.86Z" style="fill:#BA68C8"></path><path d="M245.58,307.05s9,7.18,13.16,15.39c9.49,18.59,14.33,49.92,11.2,71-.83,5.53-2.36,10.18-5.67,13.4,4.32,1.62,20.06-2.27,25.9-10.23,7.51-10.22,6.89-25,6.1-30.94-2.62-19.78-8.95-38.86-25.06-51.09-8.95-6.79-21.5-9.53-25.61-7.52Z" style="fill:#BA68C8"></path><path d="M245.58,307.05s9,7.18,13.16,15.39c9.49,18.59,14.33,49.92,11.2,71-.83,5.53-2.36,10.18-5.67,13.4,4.32,1.62,20.06-2.27,25.9-10.23,7.51-10.22,6.89-25,6.1-30.94-2.62-19.78-8.95-38.86-25.06-51.09-8.95-6.79-21.5-9.53-25.61-7.52Z" style="fill:#fff;opacity:0.15"></path><path d="M267.23,402.68a26.68,26.68,0,0,0,1.82-5.2c.33-1.27.61-2.63.89-4.06v0c.63-3.17.55-8.88.11-15.59-.93-14.42-1.84-29.83-5.89-43.81-.21-3.87-.32-5.8-.52-9.67,15.16,17.92,24,49.93,13.61,73,0,0,5.5-.28,11.74-8.09,5.67-7.09,7.43-16.65,7.6-18.78.24,7.2-.47,18-6.42,26.14s-21.58,11.85-25.9,10.23A15,15,0,0,0,267.23,402.68Z" style="opacity:0.05"></path><path d="M275.43,375.11c.1,15.76-5.44,25.84-10.62,31.28s-11.74,7.25-18.27,7a22.14,22.14,0,0,1-15-6.34c-3.24-3.27-7.27-9.36-8.48-15-5.09-23.87-1.16-50.88,12.54-70.76,9.36-13.59,15.9-12.36,15.9-12.36s4.43.06,12,13.26C272.34,337.48,275.31,357.09,275.43,375.11Z" style="fill:#BA68C8"></path><path d="M275.43,375.11c.1,15.76-5.44,25.84-10.62,31.28s-11.74,7.25-18.27,7a22.14,22.14,0,0,1-15-6.34c-3.24-3.27-7.27-9.36-8.48-15-5.09-23.87-1.16-50.88,12.54-70.76,9.36-13.59,15.9-12.36,15.9-12.36s4.43.06,12,13.26C272.34,337.48,275.31,357.09,275.43,375.11Z" style="fill:#fff;opacity:0.25"></path><path d="M243.53,405.66c-10.17-2.19-21.95-22.84-21.95-22.84s.87,6.16,1.47,9.17c1.16,5.74,5.24,11.75,8.48,15a22.14,22.14,0,0,0,15,6.34c6.53.29,13.09-1.52,18.27-7a37.17,37.17,0,0,0,8.26-14.33A28,28,0,0,1,243.53,405.66Z" style="opacity:0.05"></path></g><path d="M266.5,384.06c-.3-2-.59-3.87-.59-3.87h-7.25l-1.3,6.41a55.6,55.6,0,0,1-8,.54c-30.5,0-28.42-20-28.42-20h8.34c.35,2.49,1,6.62,1,6.62h7.25l1.34-6.62h38.9S278.91,378.47,266.5,384.06Z" style="fill:#263238"></path><path d="M285.59,351c-1.1,2.16-15.29,9.57-18.14,7.49-1.11-.81-1.35-3.9-1.16-7.39a4.27,4.27,0,1,0,3.28-7,4.22,4.22,0,0,0-2.58.87c.52-3.16,1.22-5.7,1.71-6C272.4,336.85,286.7,348.81,285.59,351Z" style="fill:#263238"></path><path d="M213.86,351c1.11,2.16,15.3,9.57,18.14,7.49,1.11-.81,1.36-3.9,1.17-7.39a4.28,4.28,0,1,1-.7-6.15c-.52-3.16-1.22-5.7-1.71-6C227.06,336.85,212.75,348.81,213.86,351Z" style="fill:#263238"></path></g><g id="freepik--dog--inject-4"><path d="M288.39,281.32c-1.38-5.26-7.2-8.93-13.89-12-4.25-1.95-7.38-.42-11.86.37a19.38,19.38,0,0,0,4.66,8.35l-1,3.32,5.93,14.42c1.23-3.63,3.08,2.73,3.08,2.73h0c.45,3.62.83,7.33.9,9.89.14,5.12,3.37,2,6.46-5.69S289.77,286.58,288.39,281.32Z" style="fill:#263238"></path><path d="M203.85,281.32c1.37-5.26,7.19-8.93,13.88-12,4.25-1.95,7.39-.42,11.87.37a19.51,19.51,0,0,1-4.66,8.35l1,3.32L220.21,297c-1.23-3.63-2.64.85-3,2.13A66,66,0,0,0,216,308.4c-.13,5.12-3.36,2-6.46-5.69S202.47,286.58,203.85,281.32Z" style="fill:#263238"></path><path d="M245.91,266c-9.38,0-17.34,1.57-21.95,7.7-3,4.05-4.89,10.22-4.59,16.91.31,6.9,1.87,12.38,9,21.1,3.29,4,2.9,7.59,7.62,13.42,3.82,4.73,5.48,5.73,9.17,6.54a6.38,6.38,0,0,0,4.51-.8,14.86,14.86,0,0,0,3.36.86c3.61.39,6.64-1.69,8.61-5.92,2.52-5.41,3-9,3.92-13s6.26-9.22,7.09-19.94c1-13.47-2.9-17.61-6.91-21.39S255,266,245.91,266Z" style="fill:#455a64"></path><path d="M256.59,309.47c-4.77-3.71-5.36-16.58-7.35-16.41s-2.91,12-5.16,14.81-4,4.26-7.38,7.14a14.49,14.49,0,0,0-3.8,5.34,19.47,19.47,0,0,0,3,5.31c3.83,4.74,5.31,6.36,8.87,6.5a9.37,9.37,0,0,0,5-1.31,12.63,12.63,0,0,0,3.5,1c3.6.39,6.68-1.76,8.65-6a39.85,39.85,0,0,0,2.21-6.52C265.17,314.72,261.35,313.18,256.59,309.47Z" style="fill:#f0f0f0"></path><path d="M244.76,332.16a9.37,9.37,0,0,0,5-1.31,12.63,12.63,0,0,0,3.5,1c3.6.39,6.68-1.76,8.65-6a39.85,39.85,0,0,0,2.21-6.52s-2.09,6.73-6,8.2c-5.62,2.13-8.58-.63-8.58-.63s-2.69,3.19-7.44.6c-3.72-2-5.38-6.29-7-10.9a13.29,13.29,0,0,0-2.22,3.69,19.47,19.47,0,0,0,3,5.31C239.72,330.4,241.2,332,244.76,332.16Z" style="fill:#e0e0e0"></path><path d="M254.66,320.26c-.79-.37-3-.39-5.13-.28-2.14-.11-4.34-.09-5.13.28-1.59.75,1.37,3.36,1.37,3.36l.57.33,3.19.23h0l3.19-.23.56-.33S256.25,321,254.66,320.26Z" style="fill:#263238"></path><path d="M256.18,318.08c-.64-.8-2.58-2.78-6.65-2.87h0c-4.07.09-6,2.07-6.66,2.87s-.15,2.92.76,4.11a4,4,0,0,0,2.14,1.43s-1.32-1.77-.7-2c.32-.13,1.18,2.2,1.18,2.2s.18,1.26,3.28,1.26h0c3.1,0,3.27-1.26,3.27-1.26s.87-2.33,1.19-2.2c.62.25-.71,2-.71,2a4,4,0,0,0,2.15-1.43C256.33,321,256.82,318.88,256.18,318.08Z" style="fill:#455a64"></path><path d="M249.53,319.45a16.87,16.87,0,0,0,6.77-1.17.82.82,0,0,0-.12-.2c-.64-.8-2.58-2.78-6.65-2.87h0c-4.07.09-6,2.07-6.66,2.87l-.12.2a17,17,0,0,0,6.78,1.17Z" style="fill:#37474f"></path><path d="M265.44,295.28a3.44,3.44,0,1,1-3.43-3.44A3.44,3.44,0,0,1,265.44,295.28Z" style="fill:#263238"></path><path d="M261.83,294.6a1,1,0,1,1-1-1A1,1,0,0,1,261.83,294.6Z" style="fill:#f0f0f0"></path><path d="M238.49,295.28a3.44,3.44,0,1,1-3.43-3.44A3.44,3.44,0,0,1,238.49,295.28Z" style="fill:#263238"></path><path d="M234.88,294.6a1,1,0,1,1-1-1A1,1,0,0,1,234.88,294.6Z" style="fill:#f0f0f0"></path></g><g id="freepik--Top--inject-4"><path d="M278.53,262.47c-1.47-4.41-7-10.36-14.55-11.27-5.29-5.11-14.76-3.83-17.88-1.16-4.79-3.2-14.09-2.85-18.51,1.24-7.26,1.15-12.49,6.91-13.92,11.19s.12,7.58,2.53,9.07c1.47,3.69,2.73,7.44,9,8.71S235.35,279,235.35,279s2,5.24,10.75,5.29S256.85,279,256.85,279s3.92,2.54,10.16,1.28,7.51-5,9-8.71C278.41,270.05,280,266.77,278.53,262.47Z" style="fill:#BA68C8"></path><path d="M246.1,259.16c-9.34-.88-16.1,10.41-17.52,16a9.24,9.24,0,0,0,0,5.44,13.31,13.31,0,0,0,6.79-1.63C235.1,266.65,240.75,261,246.1,259.16Z" style="opacity:0.1"></path><path d="M233.31,248.43a12.82,12.82,0,0,0-5.72,2.85h0c7.23-.09,16.55,4.48,18.51,7.88C243.27,253.2,237.62,250.05,233.31,248.43Z" style="opacity:0.1"></path><path d="M213.19,266.78a6.59,6.59,0,0,0,3,4.76c7-19.08,24.55-15,29.9-12.38-7.48-6.91-21.25-4.94-27.94,1.09A24.86,24.86,0,0,0,213.19,266.78Z" style="opacity:0.1"></path><path d="M246.1,259.16c9.34-.88,16.09,10.41,17.52,16a9.33,9.33,0,0,1,0,5.44,13.31,13.31,0,0,1-6.79-1.63C257.09,266.65,251.45,261,246.1,259.16Z" style="opacity:0.1"></path><path d="M258.89,248.43a12.93,12.93,0,0,1,5.72,2.85h0c-7.24-.09-16.56,4.48-18.51,7.88C248.93,253.2,254.57,250.05,258.89,248.43Z" style="opacity:0.1"></path><path d="M279,266.78a6.55,6.55,0,0,1-3,4.76c-7-19.08-24.55-15-29.9-12.38,7.47-6.91,21.25-4.94,27.93,1.09A24.86,24.86,0,0,1,279,266.78Z" style="opacity:0.1"></path><path d="M242.87,242.42c1.43,5.05-1,9.42-6.67,10.45,3.27.69,3.14,3,1.45,4.1,4.7.82,4.31,4.47,4.31,4.47s4.45-2.3,8.27,0c.11-3,.91-4.16,3.16-4.34a1.94,1.94,0,0,1,.25-3.3,10.82,10.82,0,0,1-3.91-7.68c-.13-6.77-3.91-10.35-6.93-11.13s-9.82,2.24-9.9,4.83.15,1.12,3,.11S242,239.14,242.87,242.42Z" style="fill:#455a64"></path><path d="M243.8,260.77l.13-.24a14.78,14.78,0,0,0,1.09-3.07c.11-.56.2-1.13.27-1.69,0-.3.08-.6.11-.9s-.05-.61,0-.92c0-.07-.06,0-.07,0a4.72,4.72,0,0,1-.27.61c-.12.28-.19.58-.29.86a15.22,15.22,0,0,1-.64,1.43c-.46.94-.85,1.91-1.38,2.83L242,261c0,.27,0,.45,0,.45A10.57,10.57,0,0,1,243.8,260.77Z" style="fill:#37474f"></path><path d="M250.43,259.68a9.21,9.21,0,0,1-.87-2.1,31.68,31.68,0,0,1-.72-3.59c-.08-.47-.15-.94-.24-1.41a1.76,1.76,0,0,0-.28-.87s0,0,0,0a4.14,4.14,0,0,0,0,1.53c0,.56.09,1.13.13,1.7a21,21,0,0,0,.4,3.26A8.56,8.56,0,0,0,250,261l.26.38A11,11,0,0,1,250.43,259.68Z" style="fill:#37474f"></path><path d="M242.2,254.17a17.36,17.36,0,0,0,2.05-3.54,10.6,10.6,0,0,0,1.16-4.35c0-.07-.07-.07-.09,0-.57,1.14-.92,2.38-1.54,3.5a15.21,15.21,0,0,1-2.45,3.3,7,7,0,0,1-2.55,1.68,2.22,2.22,0,0,1-1.13,2.22l.19,0a7.73,7.73,0,0,0,.95-.23A7.06,7.06,0,0,0,242.2,254.17Z" style="fill:#37474f"></path></g></g></g><g id="freepik--Skulls--inject-4"><g id="freepik--skull-candle--inject-4"><path id="freepik--shadow--inject-4" d="M169,380.42c13.29,7.68,13.29,20.12,0,27.79s-34.83,7.67-48.12,0-13.3-20.11,0-27.79S155.73,372.75,169,380.42Z" style="fill:#e0e0e0"></path><g id="freepik--Skull--inject-4"><path d="M177.08,364.59c-4.68-14.77-21.89-22.5-38.43-17.26-12.61,4-21.18,14.37-22.48,25.62h0c0,.21,0,.44-.07.69a25.55,25.55,0,0,0,0,4.46c.33,7.35,2,18.29,3.69,20.61,1.92,2.65,3.73,1.1,3.73,1.1s-.46,4.4,3.45,5.55c3.67,1.08,5.75-.61,5.75-.61a6.44,6.44,0,0,0,6,3.22c6-.35,5.62-5.1,9.62-5.63h0a30,30,0,0,0,7.32-1.49C172.15,395.6,181.76,379.37,177.08,364.59Z" style="fill:#fafafa"></path><path d="M153.05,398.09c-9.06,1-8.78,2.28-10.73,6s-4.63,3.73-7.95,2.59a6.12,6.12,0,0,0,4.3,1.33c6-.35,5.62-5.1,9.62-5.63a30,30,0,0,0,7.32-1.49c13.33-4.22,22.15-15.59,22.63-27.57-1.08,5.17-4.55,12-10.36,17.35C164.39,393.85,157,397.64,153.05,398.09Z" style="fill:#BA68C8;opacity:0.15"></path><path d="M136.4,379.43c2.52-3.48,9.1-6.37,13.32-3.39,2.95,2.1,4.7,8.19.64,12.72s-11.74,3-14,0A8.1,8.1,0,0,1,136.4,379.43Z" style="fill:#BA68C8"></path><path d="M136.4,379.43c2.52-3.48,9.1-6.37,13.32-3.39,2.95,2.1,4.7,8.19.64,12.72s-11.74,3-14,0A8.1,8.1,0,0,1,136.4,379.43Z" style="fill:#fff;opacity:0.30000000000000004"></path><path d="M149.72,376c-2.25-1.59-5.18-1.51-7.81-.55a10.2,10.2,0,0,0-1.78,1.83,8.13,8.13,0,0,0,0,9.34c1.61,2.15,6,3.55,9.87,2.49a4.68,4.68,0,0,0,.38-.39C154.42,384.23,152.67,378.14,149.72,376Z" style="fill:#455a64"></path><path d="M125.6,377.71c1.08-3,.63-9.82-2.27-11.21-3.49-1.67-5.92,3.91-6.09,8.64s1.37,7.64,3.58,7.38S124.57,380.59,125.6,377.71Z" style="fill:#BA68C8"></path><path d="M125.6,377.71c1.08-3,.63-9.82-2.27-11.21-3.49-1.67-5.92,3.91-6.09,8.64s1.37,7.64,3.58,7.38S124.57,380.59,125.6,377.71Z" style="fill:#fff;opacity:0.30000000000000004"></path><path d="M123.33,366.5a2.87,2.87,0,0,0-1.32-.3,14.58,14.58,0,0,0-2,7c-.17,4.73,1.38,7.65,3.59,7.38a5.67,5.67,0,0,0,.57-.1,10.55,10.55,0,0,0,1.4-2.75C126.68,374.7,126.23,367.89,123.33,366.5Z" style="fill:#455a64"></path><path d="M129.12,384.19c-2.12-.6-5.34,7.15-4.85,9.09s2.53,1.63,3.37.86a2.52,2.52,0,0,0,3.74,1.29C132.92,394.38,131.25,384.79,129.12,384.19Z" style="fill:#BA68C8"></path><path d="M129.12,384.19c-2.12-.6-5.34,7.15-4.85,9.09s2.53,1.63,3.37.86a2.52,2.52,0,0,0,3.74,1.29C132.92,394.38,131.25,384.79,129.12,384.19Z" style="fill:#fff;opacity:0.30000000000000004"></path><path d="M129.53,392.61a2.73,2.73,0,0,0,2.36,1.71c.47-2.82-1-9.63-2.77-10.13a1.05,1.05,0,0,0-.31,0c-1.59,2.24-3,6.26-2.64,7.58C126.66,393.68,128.69,393.37,129.53,392.61Z" style="fill:#455a64"></path></g><g id="freepik--Candle--inject-4"><circle cx="147.03" cy="325.29" r="14.36" style="fill:#BA68C8;opacity:0.25"></circle><circle cx="147.03" cy="325.29" r="24.12" style="fill:#BA68C8;opacity:0.25"></circle><g id="freepik--candle--inject-4"><path d="M143.66,333.17c-.2,0-.32.41-.32,1.05s0,2.35,0,2.58.39.78-.09,1l-.18-.18,0-4.46Z" style="opacity:0.15"></path><path d="M142.41,328.17A9.66,9.66,0,0,1,147.1,327a5.64,5.64,0,0,0,2.69-.93c.58-.17,1.45-1.1,2-.89s.58,1.55,1,1.79.82.65.82,1.77v.85l-.22.18-.18.17-.05,0-.18.2-.07.09a2.79,2.79,0,0,0-.36.63c-.26.76-.59,1.33-1,1.5a8.55,8.55,0,0,0-2,1,3,3,0,0,0-.5.58,4.68,4.68,0,0,1-.29.37,2.15,2.15,0,0,1-1.18.78h0c-.3.05-.3.64-.29,1.56v2.6H147c0-1.42,0-2.4,0-2.6,0-.91,0-1.5-.3-1.54h0a2.07,2.07,0,0,1-1-.45c-.1-.09-.21-.21-.32-.33l-.34-.37a3.44,3.44,0,0,0-.49-.46,4.65,4.65,0,0,0-.66-.4.73.73,0,0,0-.36,0c-.36.08-.32.7-.31,1.22s0,2,0,2.38a4.77,4.77,0,0,0,.17.75.33.33,0,0,1-.3.35.33.33,0,0,1-.3-.35,4.69,4.69,0,0,0,.16-.75c0-.34,0-2.17,0-2.69s0-1.15-.33-1.22h0a2.49,2.49,0,0,1-1.8-.89h0C140.08,330.69,140.61,329.21,142.41,328.17Z" style="fill:#BA68C8"></path><path d="M153.45,329.8l-.18.17,0,0h0l0,0a2.37,2.37,0,0,0-.25.29l-.07.1a.86.86,0,0,0-.1.16s0,0,0,0,0,.09-.08.14l0,.08a.36.36,0,0,0,0,.09c-.26.76-.59,1.33-1,1.5a8.55,8.55,0,0,0-2,1,3,3,0,0,0-.5.58,4.68,4.68,0,0,1-.29.37,2.06,2.06,0,0,1-1.71.84,2.13,2.13,0,0,1-1.41-.49c-.1-.09-.21-.21-.32-.33l-.34-.37a3.44,3.44,0,0,0-.49-.46,3.86,3.86,0,0,0-1.94-.74,2.49,2.49,0,0,1-1.8-.89h0a2.29,2.29,0,0,1-.32-1.14l.09,23.92a2.51,2.51,0,0,0,.49,1.41,4.59,4.59,0,0,0,1.46,1.24,10.43,10.43,0,0,0,9.32-.06,3.25,3.25,0,0,0,1.92-2.68l-.06-19.17,0-4.74v-1.14Z" style="fill:#BA68C8"></path><path d="M153.45,329.8l-.18.17,0,0h0l0,0a2.37,2.37,0,0,0-.25.29l-.07.1a.86.86,0,0,0-.1.16s0,0,0,0,0,.09-.08.14l0,.08a.36.36,0,0,0,0,.09c-.26.76-.59,1.33-1,1.5a8.55,8.55,0,0,0-2,1,3,3,0,0,0-.5.58,4.68,4.68,0,0,1-.29.37,2.06,2.06,0,0,1-1.71.84,2.13,2.13,0,0,1-1.41-.49c-.1-.09-.21-.21-.32-.33l-.34-.37a3.44,3.44,0,0,0-.49-.46,3.86,3.86,0,0,0-1.94-.74,2.49,2.49,0,0,1-1.8-.89h0a2.29,2.29,0,0,1-.32-1.14l.09,23.92a2.51,2.51,0,0,0,.49,1.41,4.59,4.59,0,0,0,1.46,1.24,10.43,10.43,0,0,0,9.32-.06,3.25,3.25,0,0,0,1.92-2.68l-.06-19.17,0-4.74v-1.14Z" style="fill:#fff;opacity:0.15"></path><path d="M146,331.43a2.44,2.44,0,0,0,2.2,0,.66.66,0,0,0,0-1.25,2.44,2.44,0,0,0-2.2,0A.66.66,0,0,0,146,331.43Z" style="opacity:0.15"></path><path d="M144.55,333.61l-.39-.27a2,2,0,0,0-.47-.16l-.52-.17c-.44-.14-.91-.18-1.35-.32a1.83,1.83,0,0,1-1-.71c-.73-1.29-.2-2.77,1.6-3.81A9.66,9.66,0,0,1,147.1,327a5.64,5.64,0,0,0,2.69-.93,3.72,3.72,0,0,0,.8-.45c-.29.19-.24.52-.74.73s-.71.64-1.39.79a35.61,35.61,0,0,0-4,.47c-1,.34-2.88,1.05-3.38,2.2a1.9,1.9,0,0,0,.59,2.53,4.34,4.34,0,0,0,1.32.33,3.69,3.69,0,0,1,.46.08,2.82,2.82,0,0,1,1,.52,10.89,10.89,0,0,1,.88.78,2.83,2.83,0,0,0,.81.61,1.93,1.93,0,0,0,1.66,0,2.45,2.45,0,0,0,.87-.69l.11-.15a4.15,4.15,0,0,1,2.12-1.5,1.8,1.8,0,0,0,1.34-1.34,3.82,3.82,0,0,1,.92-1.49,2.15,2.15,0,0,0,.1-1.66c-.14-.45-.72-.46-.91-.78s-.07-1.05-.14-1.44c.22.48.31,1.19.61,1.36s.82.65.82,1.77v.85l-.22.18-.18.17-.05,0-.18.2-.07.09a2.79,2.79,0,0,0-.36.63c-.26.76-.59,1.33-1,1.5a8.55,8.55,0,0,0-2,1,3,3,0,0,0-.5.58,4.68,4.68,0,0,1-.29.37,2.72,2.72,0,0,1-.62.55,1.89,1.89,0,0,1-.79.32h-.26a2.32,2.32,0,0,1-.78-.13,2.35,2.35,0,0,1-.67-.39c-.1-.09-.21-.21-.32-.33l-.34-.37A3.44,3.44,0,0,0,144.55,333.61Z" style="fill:#fff;opacity:0.5"></path><path d="M147.49,327.84c-1.82-.16-5,.56-5.81,2.11a1.56,1.56,0,0,0,.4,2.24,2,2,0,0,1,.82-2.5A9.35,9.35,0,0,1,147.49,327.84Z" style="opacity:0.05"></path><path d="M149.51,327.91c2.18.28,2.94,1.38,2.88,2.13,0,0,.58-.52.58-1s-.57-.79-.85-1.1-.23-1.3-.75-1.3S150.81,327.74,149.51,327.91Z" style="opacity:0.05"></path><g id="freepik--Flame--inject-4"><path d="M147,327.53c-1.51-.09-2.63-1.76-1.58-4.12s1.69-3.63,1.28-6a14.19,14.19,0,0,1,1.79,3.51,12.35,12.35,0,0,1,.83,3.38C149.45,326.46,148.39,327.52,147,327.53Z" style="fill:#BA68C8"></path><path d="M147,327.53c-1.51-.09-2.63-1.76-1.58-4.12s1.69-3.63,1.28-6a14.19,14.19,0,0,1,1.79,3.51,12.35,12.35,0,0,1,.83,3.38C149.45,326.46,148.39,327.52,147,327.53Z" style="fill:#fff;opacity:0.6000000000000001"></path><path d="M147,327.39c-.49,0-1-.62-1.24-1.07a3.2,3.2,0,0,1,.16-2.68l.17-.37a13.68,13.68,0,0,0,1.22-3.6,13.89,13.89,0,0,1,.6,1.45,11.88,11.88,0,0,1,.8,3.23,3,3,0,0,1-.44,2.18A2.28,2.28,0,0,1,147,327.39Z" style="fill:#fff;opacity:0.5"></path><path d="M146.9,327.32a1.51,1.51,0,0,1-.59-1.59c.14-.76.86-1.77.86-2.11a6.09,6.09,0,0,1,.7,2A1.56,1.56,0,0,1,146.9,327.32Z" style="fill:#BA68C8"></path><path d="M146.9,327.32a1.51,1.51,0,0,1-.59-1.59c.14-.76.86-1.77.86-2.11a6.09,6.09,0,0,1,.7,2A1.56,1.56,0,0,1,146.9,327.32Z" style="opacity:0.15"></path><path d="M147,330.86a.41.41,0,0,1-.34-.27,2.29,2.29,0,0,1-.12-.37,2.69,2.69,0,0,1-.07-.75,4.3,4.3,0,0,1,.07-.73c0-.24.08-.47.13-.7.1-.46.22-.91.29-1.36a7,7,0,0,0,.06-1.38h0a6,6,0,0,1,.16,1.41c0,.48-.06.95-.1,1.41q0,.34-.06.69a3.64,3.64,0,0,0,0,.66q0,.32.09.63l.06.31a.44.44,0,0,1-.07.38Z" style="fill:#455a64"></path></g></g></g></g><g id="freepik--skull-candle--inject-4"><ellipse id="freepik--shadow--inject-4" cx="352.69" cy="394.32" rx="34.03" ry="19.65" style="fill:#e0e0e0"></ellipse><g id="freepik--skull--inject-4"><path d="M320.57,364.59c4.69-14.77,21.89-22.5,38.43-17.26,12.61,4,21.18,14.37,22.48,25.62h0c0,.21,0,.44.07.69a25.55,25.55,0,0,1,0,4.46c-.33,7.35-2,18.29-3.68,20.61-1.93,2.65-3.73,1.1-3.73,1.1s.46,4.4-3.46,5.55c-3.67,1.08-5.75-.61-5.75-.61a6.44,6.44,0,0,1-6,3.22c-6-.35-5.62-5.1-9.62-5.63h0a29.79,29.79,0,0,1-7.31-1.49C325.5,395.6,315.89,379.37,320.57,364.59Z" style="fill:#fafafa"></path><path d="M344.6,398.09c9.06,1,8.78,2.28,10.73,6s4.63,3.73,7.95,2.59A6.12,6.12,0,0,1,359,408c-6-.35-5.62-5.1-9.62-5.63a29.79,29.79,0,0,1-7.31-1.49c-13.34-4.22-22.16-15.59-22.63-27.57,1.07,5.17,4.54,12,10.35,17.35C333.26,393.85,340.65,397.64,344.6,398.09Z" style="fill:#BA68C8;opacity:0.15"></path><path d="M361.25,379.43c-2.51-3.48-9.1-6.37-13.32-3.39-2.95,2.1-4.69,8.19-.64,12.72s11.74,3,14,0A8.1,8.1,0,0,0,361.25,379.43Z" style="fill:#BA68C8"></path><path d="M361.25,379.43c-2.51-3.48-9.1-6.37-13.32-3.39-2.95,2.1-4.69,8.19-.64,12.72s11.74,3,14,0A8.1,8.1,0,0,0,361.25,379.43Z" style="fill:#fff;opacity:0.30000000000000004"></path><path d="M347.93,376c2.26-1.59,5.19-1.51,7.81-.55a10.2,10.2,0,0,1,1.78,1.83,8.15,8.15,0,0,1,0,9.34c-1.62,2.15-6,3.55-9.88,2.49a4.68,4.68,0,0,1-.38-.39C343.24,384.23,345,378.14,347.93,376Z" style="fill:#455a64"></path><path d="M372.05,377.71c-1.08-3-.63-9.82,2.28-11.21,3.48-1.67,5.91,3.91,6.09,8.64s-1.38,7.64-3.59,7.38S373.08,380.59,372.05,377.71Z" style="fill:#BA68C8"></path><path d="M372.05,377.71c-1.08-3-.63-9.82,2.28-11.21,3.48-1.67,5.91,3.91,6.09,8.64s-1.38,7.64-3.59,7.38S373.08,380.59,372.05,377.71Z" style="fill:#fff;opacity:0.30000000000000004"></path><path d="M374.33,366.5a2.8,2.8,0,0,1,1.31-.3,14.58,14.58,0,0,1,2,7c.17,4.73-1.38,7.65-3.59,7.38a5.67,5.67,0,0,1-.57-.1,10.87,10.87,0,0,1-1.4-2.75C371,374.7,371.42,367.89,374.33,366.5Z" style="fill:#455a64"></path><path d="M368.53,384.19c2.12-.6,5.34,7.15,4.85,9.09s-2.52,1.63-3.37.86a2.52,2.52,0,0,1-3.74,1.29C364.73,394.38,366.4,384.79,368.53,384.19Z" style="fill:#BA68C8"></path><path d="M368.53,384.19c2.12-.6,5.34,7.15,4.85,9.09s-2.52,1.63-3.37.86a2.52,2.52,0,0,1-3.74,1.29C364.73,394.38,366.4,384.79,368.53,384.19Z" style="fill:#fff;opacity:0.30000000000000004"></path><path d="M368.12,392.61a2.73,2.73,0,0,1-2.36,1.71c-.47-2.82,1-9.63,2.77-10.13a1.05,1.05,0,0,1,.31,0c1.59,2.24,3,6.26,2.64,7.58C371,393.68,369,393.37,368.12,392.61Z" style="fill:#455a64"></path></g><g id="freepik--candle--inject-4"><circle cx="350.62" cy="325.29" r="14.36" style="fill:#BA68C8;opacity:0.25"></circle><circle cx="350.62" cy="325.29" r="24.12" style="fill:#BA68C8;opacity:0.25"></circle><g id="freepik--candle--inject-4"><path d="M354,333.17c.2,0,.33.41.32,1.05s0,2.35,0,2.58-.4.78.08,1l.18-.18,0-4.46Z" style="opacity:0.15"></path><path d="M355.25,328.17a9.72,9.72,0,0,0-4.69-1.14,5.69,5.69,0,0,1-2.7-.93c-.58-.17-1.45-1.1-2-.89s-.58,1.55-1,1.79-.81.65-.82,1.77v.85l.22.18.18.17.05,0,.18.2.07.09a2.45,2.45,0,0,1,.36.63c.26.76.59,1.33,1,1.5a8.55,8.55,0,0,1,2,1,3,3,0,0,1,.5.58,4.68,4.68,0,0,0,.29.37,2.15,2.15,0,0,0,1.18.78h0c.29.05.29.64.29,1.56,0,.2,0,1.18,0,2.6h.39c0-1.42,0-2.4,0-2.6,0-.91,0-1.5.3-1.54h0a2.07,2.07,0,0,0,1-.45c.1-.09.21-.21.33-.33l.33-.37a4.08,4.08,0,0,1,.49-.46,4.65,4.65,0,0,1,.66-.4.75.75,0,0,1,.36,0c.36.08.32.7.31,1.22s0,2,0,2.38a4.77,4.77,0,0,1-.17.75.33.33,0,0,0,.3.35.32.32,0,0,0,.3-.35,4.88,4.88,0,0,1-.15-.75c0-.34,0-2.17,0-2.69s0-1.15.33-1.22h0a2.49,2.49,0,0,0,1.8-.89h0C357.57,330.69,357,329.21,355.25,328.17Z" style="fill:#BA68C8"></path><path d="M344.2,329.8l.18.17,0,0h0s0,0,0,0a3.7,3.7,0,0,1,.24.29.61.61,0,0,1,.07.1.86.86,0,0,1,.1.16s0,0,0,0,.05.09.08.14l0,.08a.36.36,0,0,1,0,.09c.26.76.59,1.33,1,1.5a8.55,8.55,0,0,1,2,1,3,3,0,0,1,.5.58,4.68,4.68,0,0,0,.29.37,2.06,2.06,0,0,0,1.71.84,2.11,2.11,0,0,0,1.41-.49c.1-.09.21-.21.33-.33l.33-.37a4.08,4.08,0,0,1,.49-.46,3.86,3.86,0,0,1,1.94-.74,2.49,2.49,0,0,0,1.8-.89h0a2.29,2.29,0,0,0,.32-1.14l-.09,23.92a2.51,2.51,0,0,1-.49,1.41,4.59,4.59,0,0,1-1.46,1.24,10.43,10.43,0,0,1-9.32-.06,3.25,3.25,0,0,1-1.92-2.68L344,335.5l0-4.74v-1.14Z" style="fill:#BA68C8"></path><path d="M344.2,329.8l.18.17,0,0h0s0,0,0,0a3.7,3.7,0,0,1,.24.29.61.61,0,0,1,.07.1.86.86,0,0,1,.1.16s0,0,0,0,.05.09.08.14l0,.08a.36.36,0,0,1,0,.09c.26.76.59,1.33,1,1.5a8.55,8.55,0,0,1,2,1,3,3,0,0,1,.5.58,4.68,4.68,0,0,0,.29.37,2.06,2.06,0,0,0,1.71.84,2.11,2.11,0,0,0,1.41-.49c.1-.09.21-.21.33-.33l.33-.37a4.08,4.08,0,0,1,.49-.46,3.86,3.86,0,0,1,1.94-.74,2.49,2.49,0,0,0,1.8-.89h0a2.29,2.29,0,0,0,.32-1.14l-.09,23.92a2.51,2.51,0,0,1-.49,1.41,4.59,4.59,0,0,1-1.46,1.24,10.43,10.43,0,0,1-9.32-.06,3.25,3.25,0,0,1-1.92-2.68L344,335.5l0-4.74v-1.14Z" style="fill:#fff;opacity:0.15"></path><path d="M351.66,331.43a2.42,2.42,0,0,1-2.19,0c-.61-.35-.61-.91,0-1.25a2.44,2.44,0,0,1,2.2,0A.66.66,0,0,1,351.66,331.43Z" style="opacity:0.15"></path><path d="M353.1,333.61c.13-.09.26-.19.4-.27a1.79,1.79,0,0,1,.46-.16l.52-.17c.45-.14.91-.18,1.35-.32a1.83,1.83,0,0,0,1-.71c.73-1.29.2-2.77-1.59-3.81a9.72,9.72,0,0,0-4.69-1.14,5.69,5.69,0,0,1-2.7-.93,3.72,3.72,0,0,1-.8-.45c.29.19.25.52.74.73s.71.64,1.4.79a35.72,35.72,0,0,1,4,.47c1,.34,2.88,1.05,3.38,2.2a1.89,1.89,0,0,1-.59,2.53,4.27,4.27,0,0,1-1.32.33,3.25,3.25,0,0,0-.45.08,2.86,2.86,0,0,0-1,.52,10.89,10.89,0,0,0-.88.78,2.83,2.83,0,0,1-.81.61,1.93,1.93,0,0,1-1.66,0A2.45,2.45,0,0,1,349,334l-.11-.15a4.15,4.15,0,0,0-2.12-1.5,1.8,1.8,0,0,1-1.34-1.34,3.82,3.82,0,0,0-.92-1.49,2.15,2.15,0,0,1-.1-1.66c.14-.45.72-.46.91-.78s.07-1.05.14-1.44c-.22.48-.31,1.19-.61,1.36s-.81.65-.82,1.77v.85l.22.18.18.17.05,0,.18.2.07.09a2.45,2.45,0,0,1,.36.63c.26.76.59,1.33,1,1.5a8.55,8.55,0,0,1,2,1,3,3,0,0,1,.5.58,4.68,4.68,0,0,0,.29.37,2.72,2.72,0,0,0,.62.55,1.94,1.94,0,0,0,.79.32h.26a2.28,2.28,0,0,0,.78-.13,2.35,2.35,0,0,0,.67-.39c.1-.09.21-.21.33-.33l.33-.37A4.08,4.08,0,0,1,353.1,333.61Z" style="fill:#fff;opacity:0.5"></path><path d="M350.16,327.84c1.82-.16,5,.56,5.81,2.11a1.55,1.55,0,0,1-.4,2.24,2,2,0,0,0-.82-2.5A9.35,9.35,0,0,0,350.16,327.84Z" style="opacity:0.05"></path><path d="M348.14,327.91c-2.18.28-2.94,1.38-2.88,2.13,0,0-.58-.52-.58-1s.57-.79.85-1.1.24-1.3.75-1.3S346.84,327.74,348.14,327.91Z" style="opacity:0.05"></path><g id="freepik--flame--inject-4"><path d="M350.7,327.53c1.51-.09,2.63-1.76,1.58-4.12s-1.69-3.63-1.28-6a14.62,14.62,0,0,0-1.79,3.51,12.35,12.35,0,0,0-.83,3.38C348.2,326.46,349.26,327.52,350.7,327.53Z" style="fill:#BA68C8"></path><path d="M350.7,327.53c1.51-.09,2.63-1.76,1.58-4.12s-1.69-3.63-1.28-6a14.62,14.62,0,0,0-1.79,3.51,12.35,12.35,0,0,0-.83,3.38C348.2,326.46,349.26,327.52,350.7,327.53Z" style="fill:#fff;opacity:0.6000000000000001"></path><path d="M350.68,327.39c.48,0,1-.62,1.23-1.07a3.2,3.2,0,0,0-.16-2.68l-.17-.37a13.68,13.68,0,0,1-1.22-3.6c-.2.42-.4.9-.6,1.45a11.88,11.88,0,0,0-.8,3.23,2.93,2.93,0,0,0,.45,2.18A2.22,2.22,0,0,0,350.68,327.39Z" style="fill:#fff;opacity:0.5"></path><path d="M350.75,327.32a1.51,1.51,0,0,0,.59-1.59c-.14-.76-.86-1.77-.86-2.11a6.09,6.09,0,0,0-.7,2A1.58,1.58,0,0,0,350.75,327.32Z" style="fill:#BA68C8"></path><path d="M350.75,327.32a1.51,1.51,0,0,0,.59-1.59c-.14-.76-.86-1.77-.86-2.11a6.09,6.09,0,0,0-.7,2A1.58,1.58,0,0,0,350.75,327.32Z" style="opacity:0.15"></path><path d="M350.68,330.86a.41.41,0,0,0,.34-.27,2.29,2.29,0,0,0,.12-.37,3.13,3.13,0,0,0,.08-.75,5.62,5.62,0,0,0-.08-.73c0-.24-.08-.47-.13-.7-.1-.46-.22-.91-.29-1.36a7,7,0,0,1-.06-1.38h0a6.62,6.62,0,0,0-.16,1.41c0,.48.06.95.1,1.41q0,.34.06.69a3.64,3.64,0,0,1,0,.66q0,.32-.09.63a2.84,2.84,0,0,1-.06.31.44.44,0,0,0,.07.38Z" style="fill:#455a64"></path></g></g></g></g></g><g id="freepik--Sparkles--inject-4"><g id="freepik--Shine--inject-4"><path d="M352.94,69.54c.05,4.87-.13,9.55-7.16,10.65,7.43-.1,6.87,4.58,7.23,10.44.2-5.86.72-10.07,6.5-10.35C353.53,79.29,353.69,76.52,352.94,69.54Z" style="fill:#455a64"></path><path d="M212.42,164.61c.08,8.21-.21,16.11-12.07,17.95,12.53-.16,11.58,7.73,12.2,17.62.33-9.89,1.2-17,11-17.45C213.41,181.06,213.68,176.38,212.42,164.61Z" style="fill:#455a64"></path><path d="M373.31,93.23c.09,8-.2,15.79-11.82,17.6,12.27-.17,11.35,7.57,11.95,17.26.32-9.69,1.18-16.64,10.74-17.1C374.29,109.35,374.55,104.76,373.31,93.23Z" style="fill:#BA68C8"></path><path d="M74.1,116.65c.05,4.8-.12,9.42-7.06,10.49,7.33-.1,6.77,4.52,7.13,10.3.2-5.78.71-9.93,6.41-10.2C74.68,126.26,74.84,123.53,74.1,116.65Z" style="fill:#BA68C8"></path><path d="M423.52,29.7c.05,4.8-.12,9.42-7,10.49,7.32-.1,6.76,4.52,7.12,10.3.2-5.78.71-9.93,6.41-10.2C424.1,39.31,424.26,36.58,423.52,29.7Z" style="fill:#BA68C8"></path><path d="M188,144c.05,4.53-.12,8.9-6.66,9.91,6.91-.09,6.39,4.27,6.73,9.73.18-5.46.66-9.38,6-9.64C188.53,153.09,188.68,150.51,188,144Z" style="fill:#BA68C8"></path><path d="M476.47,261.57c0,4-.1,7.77-5.82,8.66,6-.08,5.59,3.72,5.88,8.49.16-4.77.58-8.19,5.29-8.41C477,269.5,477.08,267.24,476.47,261.57Z" style="fill:#e0e0e0"></path><path d="M310.86,31.52c0,4-.1,7.77-5.81,8.66,6-.09,5.58,3.72,5.87,8.49.16-4.77.58-8.19,5.29-8.41C311.34,39.45,311.47,37.19,310.86,31.52Z" style="fill:#e0e0e0"></path><path d="M36.94,227.53c0,3.95-.1,7.76-5.82,8.65,6-.08,5.58,3.73,5.88,8.5.16-4.77.58-8.19,5.29-8.42C37.42,235.46,37.55,233.2,36.94,227.53Z" style="fill:#e0e0e0"></path><path d="M44.92,38.63c0,5.47-.14,10.74-8.05,12,8.35-.11,7.72,5.16,8.13,11.75.22-6.59.8-11.32,7.32-11.64C45.58,49.6,45.76,46.48,44.92,38.63Z" style="fill:#e0e0e0"></path><path d="M433.43,133.72c.05,4.64-.12,9.11-6.82,10.15,7.08-.1,6.54,4.37,6.89,10,.19-5.59.68-9.6,6.2-9.87C434,143,434.14,140.37,433.43,133.72Z" style="fill:#e0e0e0"></path><path d="M470.32,89.61c.05,4.64-.12,9.11-6.82,10.15,7.08-.09,6.54,4.37,6.89,10,.19-5.59.68-9.6,6.2-9.87C470.88,98.91,471,96.26,470.32,89.61Z" style="fill:#e0e0e0"></path><path d="M126.75,107.39c0-4-.1-7.76-5.81-8.65,6,.08,5.58-3.73,5.88-8.5.16,4.77.58,8.19,5.28,8.42C127.23,99.46,127.36,101.72,126.75,107.39Z" style="fill:#e0e0e0"></path><path d="M164.21,57.55c.06-5.48-.14-10.75-8.05-12,8.36.11,7.72-5.15,8.13-11.75.23,6.6.81,11.33,7.32,11.64C164.87,46.58,165.05,49.7,164.21,57.55Z" style="fill:#e0e0e0"></path></g></g><g id="freepik--speech-bubble--inject-4"><g id="freepik--speech-bubble--inject-4"><ellipse cx="250" cy="98.82" rx="63.73" ry="48.33" style="fill:#BA68C8"></ellipse><path d="M249.15,164.74l-8-20.74h17.76l-8,20.74A.91.91,0,0,1,249.15,164.74Z" style="fill:#BA68C8"></path><path d="M207.59,112.74c-.46,0-1,0-1.63,0s-1.28-.08-2-.16-1.33-.18-2-.31a9.06,9.06,0,0,1-1.8-.51,3,3,0,0,1-2.26-3V89.62a1.8,1.8,0,0,1,.47-1.33,3.37,3.37,0,0,1,1.29-.76,15.55,15.55,0,0,1,3.48-.72,40.31,40.31,0,0,1,4.3-.22q5.24,0,8.07,1.76a6,6,0,0,1,2.82,5.44A4.89,4.89,0,0,1,217.34,97a6.09,6.09,0,0,1-2.87,2,7.12,7.12,0,0,1,3.42,2.09,5.47,5.47,0,0,1,1.37,3.8,6.63,6.63,0,0,1-3,6C214.25,112.1,211.36,112.74,207.59,112.74ZM204.93,97h3a4,4,0,0,0,2.56-.66,2.36,2.36,0,0,0,.8-1.92,2,2,0,0,0-.92-1.76,4.78,4.78,0,0,0-2.77-.66c-.41,0-.88,0-1.41,0a9.65,9.65,0,0,0-1.25.13Zm0,10a7.21,7.21,0,0,0,1.48.23c.6,0,1.17.06,1.72.06a5.08,5.08,0,0,0,2.72-.68,2.3,2.3,0,0,0,1.08-2.1,2.12,2.12,0,0,0-.9-1.93,5.21,5.21,0,0,0-2.74-.57h-3.36Z" style="fill:#263238"></path><path d="M243.25,102.14a12.33,12.33,0,0,1-.78,4.53,9,9,0,0,1-5.57,5.38,13.15,13.15,0,0,1-4.38.69,12.42,12.42,0,0,1-4.38-.73,9.78,9.78,0,0,1-3.38-2.11,9.27,9.27,0,0,1-2.18-3.34,12.8,12.8,0,0,1,0-8.8,9.23,9.23,0,0,1,2.18-3.33,9.63,9.63,0,0,1,3.38-2.11,12.42,12.42,0,0,1,4.38-.74,12,12,0,0,1,4.38.76,9.73,9.73,0,0,1,3.38,2.13,9.38,9.38,0,0,1,2.19,3.33A11.68,11.68,0,0,1,243.25,102.14Zm-14.33,0a6.48,6.48,0,0,0,1,3.83,3.12,3.12,0,0,0,2.68,1.33A3,3,0,0,0,235.2,106a6.67,6.67,0,0,0,.92-3.81,6.46,6.46,0,0,0-.94-3.78,3.33,3.33,0,0,0-5.32,0A6.46,6.46,0,0,0,228.92,102.14Z" style="fill:#263238"></path><path d="M267.23,102.14a12.33,12.33,0,0,1-.78,4.53,9,9,0,0,1-2.19,3.33,9.23,9.23,0,0,1-3.37,2,13.15,13.15,0,0,1-4.38.69,12.42,12.42,0,0,1-4.38-.73,9.68,9.68,0,0,1-3.38-2.11,9.42,9.42,0,0,1-2.19-3.34,12.8,12.8,0,0,1,0-8.8,9.38,9.38,0,0,1,2.19-3.33,9.54,9.54,0,0,1,3.38-2.11,12.42,12.42,0,0,1,4.38-.74,12,12,0,0,1,4.38.76,9.69,9.69,0,0,1,3.37,2.13,9.12,9.12,0,0,1,2.19,3.33A11.68,11.68,0,0,1,267.23,102.14Zm-14.32,0a6.48,6.48,0,0,0,1,3.83,3.11,3.11,0,0,0,2.68,1.33,3,3,0,0,0,2.64-1.35,6.75,6.75,0,0,0,.92-3.81,6.46,6.46,0,0,0-.94-3.78,3.33,3.33,0,0,0-5.32,0A6.46,6.46,0,0,0,252.91,102.14Z" style="fill:#263238"></path><path d="M291.22,102.14a12.33,12.33,0,0,1-.78,4.53,9,9,0,0,1-5.57,5.38,13.11,13.11,0,0,1-4.38.69,12.33,12.33,0,0,1-4.37-.73,9.68,9.68,0,0,1-3.38-2.11,9.42,9.42,0,0,1-2.19-3.34,12.8,12.8,0,0,1,0-8.8,9.38,9.38,0,0,1,2.19-3.33,9.54,9.54,0,0,1,3.38-2.11,12.33,12.33,0,0,1,4.37-.74,12,12,0,0,1,4.38.76,9.73,9.73,0,0,1,3.38,2.13,9.38,9.38,0,0,1,2.19,3.33A11.68,11.68,0,0,1,291.22,102.14Zm-14.33,0a6.48,6.48,0,0,0,1,3.83,3.14,3.14,0,0,0,2.69,1.33,3,3,0,0,0,2.64-1.35,6.75,6.75,0,0,0,.92-3.81,6.53,6.53,0,0,0-.94-3.78,3.34,3.34,0,0,0-5.33,0A6.53,6.53,0,0,0,276.89,102.14Z" style="fill:#263238"></path><path d="M294.66,109a3.66,3.66,0,0,1,3.93-3.85,3.85,3.85,0,1,1,0,7.7,3.66,3.66,0,0,1-3.93-3.85Zm7.53-20.63c0,.63,0,1.53,0,2.72s-.08,2.47-.16,3.85-.2,2.75-.33,4.13-.3,2.57-.49,3.58a1.77,1.77,0,0,1-.5.25,4.63,4.63,0,0,1-.69.2,6.37,6.37,0,0,1-.74.13c-.24,0-.46,0-.65,0a4.68,4.68,0,0,1-2-.37,1.84,1.84,0,0,1-1-1.43,22.91,22.91,0,0,1-.35-2.87c-.09-1.28-.18-2.67-.26-4.17s-.15-3-.19-4.47-.06-2.72-.06-3.76a8.18,8.18,0,0,1,1.86-.72,8.76,8.76,0,0,1,2.07-.26,4,4,0,0,1,2.6.77A3,3,0,0,1,302.19,88.35Z" style="fill:#263238"></path></g></g></svg>